<?xml version="1.0" encoding="UTF-8" standalone="no"?>
<svg xmlns="http://www.w3.org/2000/svg" xmlns:xlink="http://www.w3.org/1999/xlink" version="1.1"
	width="1080" height="1080" viewBox="0 0 1080 1080" xml:space="preserve">
<defs>
</defs>
<g transform="matrix(1 0 0 1 540 540)" id="154e8e8e-4d14-45f7-9d90-98f13e0b7cd5"  >
<rect style="stroke: none; stroke-width: 1; stroke-dasharray: none; stroke-linecap: butt; stroke-dashoffset: 0; stroke-linejoin: miter; stroke-miterlimit: 4; fill: rgb(255,255,255); fill-rule: nonzero; opacity: 1; visibility: hidden;" vector-effect="non-scaling-stroke"  x="-540" y="-540" rx="0" ry="0" width="1080" height="1080" />
</g>
<g transform="matrix(1 0 0 1 540 540)" id="ecb1c51b-34fc-41bc-8566-69d7fa0f65b4"  >
</g>
<g transform="matrix(-1 0 0 -1 540 540)"  >
<g style="" vector-effect="non-scaling-stroke"   >
		<g transform="matrix(-2.91 0 0 -2.91 -0.03 -282.81)"  >
<path style="stroke: none; stroke-width: 1; stroke-dasharray: none; stroke-linecap: butt; stroke-dashoffset: 0; stroke-linejoin: miter; stroke-miterlimit: 4; fill: rgb(30,187,215); fill-rule: nonzero; opacity: 1;" vector-effect="non-scaling-stroke"  transform=" translate(-136.72, 13.5)" d="M 14.35 0.5 L 14.35 0.5 Q 10.55 0.55 7.75 -0.7 Q 4.95 -1.95 2.4 -4.45 L 2.4 -4.45 Q 2.15 -4.65 1.98 -4.95 Q 1.8 -5.25 1.8 -5.65 L 1.8 -5.65 Q 1.8 -6.25 2.27 -6.75 Q 2.75 -7.25 3.35 -7.25 L 3.35 -7.25 Q 3.95 -7.25 4.45 -6.75 L 4.45 -6.75 Q 6.4 -4.65 8.88 -3.55 Q 11.35 -2.45 14.2 -2.45 L 14.2 -2.45 Q 16.6 -2.45 18.48 -3.2 Q 20.35 -3.95 21.45 -5.35 Q 22.55 -6.75 22.55 -8.6 L 22.55 -8.6 Q 22.55 -10.9 21.3 -12.33 Q 20.05 -13.75 18 -14.68 Q 15.95 -15.6 13.45 -16.35 L 13.45 -16.35 Q 11.4 -16.95 9.55 -17.73 Q 7.7 -18.5 6.25 -19.63 Q 4.8 -20.75 4 -22.4 Q 3.2 -24.05 3.2 -26.4 L 3.2 -26.4 Q 3.2 -29.05 4.6 -31.1 Q 6 -33.15 8.58 -34.33 Q 11.15 -35.5 14.55 -35.5 L 14.55 -35.5 Q 17.5 -35.5 20.23 -34.5 Q 22.95 -33.5 24.55 -31.55 L 24.55 -31.55 Q 25.3 -30.75 25.3 -30.1 L 25.3 -30.1 Q 25.3 -29.6 24.8 -29.1 Q 24.3 -28.6 23.7 -28.6 L 23.7 -28.6 Q 23.2 -28.6 22.85 -28.95 L 22.85 -28.95 Q 22 -30 20.7 -30.83 Q 19.4 -31.65 17.82 -32.1 Q 16.25 -32.55 14.55 -32.55 L 14.55 -32.55 Q 12.2 -32.55 10.33 -31.83 Q 8.45 -31.1 7.38 -29.75 Q 6.3 -28.4 6.3 -26.5 L 6.3 -26.5 Q 6.3 -24.4 7.5 -23.05 Q 8.7 -21.7 10.65 -20.83 Q 12.6 -19.95 14.8 -19.2 L 14.8 -19.2 Q 16.95 -18.6 18.93 -17.82 Q 20.9 -17.05 22.43 -15.9 Q 23.95 -14.75 24.83 -13 Q 25.7 -11.25 25.7 -8.6 L 25.7 -8.6 Q 25.7 -6.05 24.25 -4 Q 22.8 -1.95 20.28 -0.75 Q 17.75 0.45 14.35 0.5 Z M 44.2 -25.75 L 44.2 -25.75 Q 47.6 -25.75 50.22 -24.08 Q 52.85 -22.4 54.4 -19.48 Q 55.95 -16.55 55.95 -12.75 L 55.95 -12.75 Q 55.95 -8.95 54.4 -6 Q 52.85 -3.05 50.2 -1.35 Q 47.55 0.35 44.25 0.35 L 44.25 0.35 Q 42.5 0.35 40.92 -0.18 Q 39.35 -0.7 38.05 -1.6 Q 36.75 -2.5 35.75 -3.73 Q 34.75 -4.95 34.15 -6.4 L 34.15 -6.4 L 35.05 -7.05 L 35.05 8.5 Q 35.05 9.1 34.62 9.55 Q 34.2 10 33.55 10 L 33.55 10 Q 32.9 10 32.47 9.55 Q 32.05 9.1 32.05 8.5 L 32.05 8.5 L 32.05 -24.1 Q 32.05 -24.75 32.45 -25.2 Q 32.85 -25.65 33.55 -25.65 L 33.55 -25.65 Q 34.2 -25.65 34.62 -25.2 Q 35.05 -24.75 35.05 -24.1 L 35.05 -24.1 L 35.05 -18.7 L 34.35 -19.1 Q 34.85 -20.65 35.82 -21.88 Q 36.8 -23.1 38.1 -23.98 Q 39.4 -24.85 40.95 -25.3 Q 42.5 -25.75 44.2 -25.75 Z M 43.95 -22.95 L 43.95 -22.95 Q 41.25 -22.95 39.2 -21.63 Q 37.15 -20.3 35.97 -18.03 Q 34.8 -15.75 34.8 -12.75 L 34.8 -12.75 Q 34.8 -9.8 35.97 -7.45 Q 37.15 -5.1 39.2 -3.78 Q 41.25 -2.45 43.95 -2.45 L 43.95 -2.45 Q 46.6 -2.45 48.62 -3.78 Q 50.65 -5.1 51.85 -7.45 Q 53.05 -9.8 53.05 -12.75 L 53.05 -12.75 Q 53.05 -15.7 51.85 -18 Q 50.65 -20.3 48.62 -21.63 Q 46.6 -22.95 43.95 -22.95 Z M 73.5 0.5 L 73.5 0.5 Q 69.65 0.5 66.7 -1.15 Q 63.75 -2.8 62.1 -5.75 Q 60.45 -8.7 60.45 -12.65 L 60.45 -12.65 Q 60.45 -16.9 62.12 -19.9 Q 63.8 -22.9 66.47 -24.53 Q 69.15 -26.15 72.15 -26.15 L 72.15 -26.15 Q 74.35 -26.15 76.42 -25.38 Q 78.5 -24.6 80.1 -23.08 Q 81.7 -21.55 82.7 -19.35 Q 83.7 -17.15 83.75 -14.25 L 83.75 -14.25 Q 83.75 -13.65 83.3 -13.23 Q 82.85 -12.8 82.25 -12.8 L 82.25 -12.8 L 62.2 -12.8 L 61.6 -15.5 L 81.3 -15.5 L 80.65 -14.9 L 80.65 -15.9 Q 80.4 -18.25 79.1 -19.9 Q 77.8 -21.55 75.97 -22.4 Q 74.15 -23.25 72.15 -23.25 L 72.15 -23.25 Q 70.65 -23.25 69.07 -22.65 Q 67.5 -22.05 66.22 -20.78 Q 64.95 -19.5 64.15 -17.53 Q 63.35 -15.55 63.35 -12.85 L 63.35 -12.85 Q 63.35 -9.9 64.55 -7.5 Q 65.75 -5.1 68 -3.7 Q 70.25 -2.3 73.45 -2.3 L 73.45 -2.3 Q 75.15 -2.3 76.55 -2.8 Q 77.95 -3.3 79.02 -4.13 Q 80.1 -4.95 80.8 -5.85 L 80.8 -5.85 Q 81.35 -6.3 81.85 -6.3 L 81.85 -6.3 Q 82.4 -6.3 82.77 -5.9 Q 83.15 -5.5 83.15 -5 L 83.15 -5 Q 83.15 -4.4 82.65 -3.95 L 82.65 -3.95 Q 81.15 -2.15 78.75 -0.83 Q 76.35 0.5 73.5 0.5 Z M 110.89 -25.55 L 110.89 -25.55 Q 111.54 -25.55 111.97 -25.1 Q 112.39 -24.65 112.39 -24 L 112.39 -24 L 112.39 -1.5 Q 112.39 -0.9 111.94 -0.45 Q 111.49 0 110.89 0 L 110.89 0 Q 110.19 0 109.79 -0.45 Q 109.39 -0.9 109.39 -1.5 L 109.39 -1.5 L 109.39 -7.45 L 110.24 -7.85 Q 110.24 -6.45 109.47 -5 Q 108.69 -3.55 107.34 -2.3 Q 105.99 -1.05 104.17 -0.28 Q 102.34 0.5 100.19 0.5 L 100.19 0.5 Q 96.84 0.5 94.17 -1.25 Q 91.49 -3 89.97 -6.05 Q 88.44 -9.1 88.44 -12.9 L 88.44 -12.9 Q 88.44 -16.8 89.99 -19.78 Q 91.54 -22.75 94.19 -24.45 Q 96.84 -26.15 100.14 -26.15 L 100.14 -26.15 Q 102.29 -26.15 104.17 -25.4 Q 106.04 -24.65 107.44 -23.35 Q 108.84 -22.05 109.64 -20.38 Q 110.44 -18.7 110.44 -16.9 L 110.44 -16.9 L 109.39 -17.65 L 109.39 -24 Q 109.39 -24.65 109.79 -25.1 Q 110.19 -25.55 110.89 -25.55 Z M 100.49 -2.3 L 100.49 -2.3 Q 103.14 -2.3 105.19 -3.68 Q 107.24 -5.05 108.42 -7.48 Q 109.59 -9.9 109.59 -12.9 L 109.59 -12.9 Q 109.59 -15.85 108.42 -18.2 Q 107.24 -20.55 105.19 -21.95 Q 103.14 -23.35 100.49 -23.35 L 100.49 -23.35 Q 97.89 -23.35 95.82 -22 Q 93.74 -20.65 92.57 -18.3 Q 91.39 -15.95 91.39 -12.9 L 91.39 -12.9 Q 91.39 -9.9 92.54 -7.48 Q 93.69 -5.05 95.77 -3.68 Q 97.84 -2.3 100.49 -2.3 Z M 122.04 0 L 122.04 0 Q 121.39 0 120.97 -0.45 Q 120.54 -0.9 120.54 -1.5 L 120.54 -1.5 L 120.54 -35.5 Q 120.54 -36.1 120.97 -36.55 Q 121.39 -37 122.04 -37 L 122.04 -37 Q 122.69 -37 123.12 -36.55 Q 123.54 -36.1 123.54 -35.5 L 123.54 -35.5 L 123.54 -1.5 Q 123.54 -0.9 123.12 -0.45 Q 122.69 0 122.04 0 Z M 139.04 -25.65 L 139.04 -25.65 Q 139.59 -25.65 140.04 -25.18 Q 140.49 -24.7 140.49 -24.15 L 140.49 -24.15 Q 140.49 -23.5 139.94 -23 L 139.94 -23 L 123.14 -8.7 L 122.99 -12.25 L 137.99 -25.15 Q 138.44 -25.65 139.04 -25.65 Z M 139.44 0 L 139.44 0 Q 138.79 0 138.34 -0.55 L 138.34 -0.55 L 126.94 -12.65 L 129.19 -14.7 L 140.49 -2.65 Q 140.94 -2.15 140.94 -1.5 L 140.94 -1.5 Q 140.94 -0.8 140.39 -0.4 Q 139.84 0 139.44 0 Z M 186.94 -32.4 L 186.94 -32.4 Q 187.54 -32 187.64 -31.38 Q 187.74 -30.75 187.34 -30.15 L 187.34 -30.15 Q 186.99 -29.7 186.44 -29.65 Q 185.89 -29.6 185.39 -29.85 L 185.39 -29.85 Q 183.49 -31.1 181.31 -31.8 Q 179.14 -32.5 176.64 -32.5 L 176.64 -32.5 Q 173.59 -32.5 170.96 -31.43 Q 168.34 -30.35 166.39 -28.33 Q 164.44 -26.3 163.36 -23.55 Q 162.29 -20.8 162.29 -17.5 L 162.29 -17.5 Q 162.29 -14.1 163.39 -11.33 Q 164.49 -8.55 166.46 -6.55 Q 168.44 -4.55 171.04 -3.5 Q 173.64 -2.45 176.64 -2.45 L 176.64 -2.45 Q 179.09 -2.45 181.26 -3.15 Q 183.44 -3.85 185.34 -5.05 L 185.34 -5.05 Q 185.84 -5.35 186.41 -5.28 Q 186.99 -5.2 187.34 -4.7 L 187.34 -4.7 Q 187.79 -4.15 187.66 -3.53 Q 187.54 -2.9 186.99 -2.55 L 186.99 -2.55 Q 185.74 -1.75 184.04 -1.05 Q 182.34 -0.35 180.44 0.08 Q 178.54 0.5 176.64 0.5 L 176.64 0.5 Q 173.04 0.5 169.89 -0.8 Q 166.74 -2.1 164.29 -4.48 Q 161.84 -6.85 160.46 -10.15 Q 159.09 -13.45 159.09 -17.5 L 159.09 -17.5 Q 159.09 -21.4 160.44 -24.68 Q 161.79 -27.95 164.19 -30.35 Q 166.59 -32.75 169.79 -34.1 Q 172.99 -35.45 176.64 -35.45 L 176.64 -35.45 Q 179.49 -35.45 182.14 -34.65 Q 184.79 -33.85 186.94 -32.4 Z M 214.03 -25.55 L 214.03 -25.55 Q 214.68 -25.55 215.11 -25.1 Q 215.53 -24.65 215.53 -24 L 215.53 -24 L 215.53 -1.5 Q 215.53 -0.9 215.08 -0.45 Q 214.63 0 214.03 0 L 214.03 0 Q 213.33 0 212.93 -0.45 Q 212.53 -0.9 212.53 -1.5 L 212.53 -1.5 L 212.53 -7.45 L 213.38 -7.85 Q 213.38 -6.45 212.61 -5 Q 211.83 -3.55 210.48 -2.3 Q 209.13 -1.05 207.31 -0.28 Q 205.48 0.5 203.33 0.5 L 203.33 0.5 Q 199.98 0.5 197.31 -1.25 Q 194.63 -3 193.11 -6.05 Q 191.58 -9.1 191.58 -12.9 L 191.58 -12.9 Q 191.58 -16.8 193.13 -19.78 Q 194.68 -22.75 197.33 -24.45 Q 199.98 -26.15 203.28 -26.15 L 203.28 -26.15 Q 205.43 -26.15 207.31 -25.4 Q 209.18 -24.65 210.58 -23.35 Q 211.98 -22.05 212.78 -20.38 Q 213.58 -18.7 213.58 -16.9 L 213.58 -16.9 L 212.53 -17.65 L 212.53 -24 Q 212.53 -24.65 212.93 -25.1 Q 213.33 -25.55 214.03 -25.55 Z M 203.63 -2.3 L 203.63 -2.3 Q 206.28 -2.3 208.33 -3.68 Q 210.38 -5.05 211.56 -7.48 Q 212.73 -9.9 212.73 -12.9 L 212.73 -12.9 Q 212.73 -15.85 211.56 -18.2 Q 210.38 -20.55 208.33 -21.95 Q 206.28 -23.35 203.63 -23.35 L 203.63 -23.35 Q 201.03 -23.35 198.96 -22 Q 196.88 -20.65 195.71 -18.3 Q 194.53 -15.95 194.53 -12.9 L 194.53 -12.9 Q 194.53 -9.9 195.68 -7.48 Q 196.83 -5.05 198.91 -3.68 Q 200.98 -2.3 203.63 -2.3 Z M 221.73 -25.45 L 221.73 -25.45 L 233.38 -25.45 Q 233.98 -25.45 234.38 -25.03 Q 234.78 -24.6 234.78 -24 L 234.78 -24 Q 234.78 -23.45 234.38 -23.05 Q 233.98 -22.65 233.38 -22.65 L 233.38 -22.65 L 221.73 -22.65 Q 221.13 -22.65 220.71 -23.08 Q 220.28 -23.5 220.28 -24.05 L 220.28 -24.05 Q 220.28 -24.65 220.71 -25.05 Q 221.13 -25.45 221.73 -25.45 Z M 226.88 -32.5 L 226.88 -32.5 Q 227.53 -32.5 227.96 -32.05 Q 228.38 -31.6 228.38 -31 L 228.38 -31 L 228.38 -5.9 Q 228.38 -4.5 228.76 -3.8 Q 229.13 -3.1 229.73 -2.88 Q 230.33 -2.65 230.93 -2.65 L 230.93 -2.65 Q 231.33 -2.65 231.66 -2.78 Q 231.98 -2.9 232.38 -2.9 L 232.38 -2.9 Q 232.83 -2.9 233.16 -2.55 Q 233.48 -2.2 233.48 -1.65 L 233.48 -1.65 Q 233.48 -0.95 232.68 -0.48 Q 231.88 0 230.78 0 L 230.78 0 Q 230.33 0 229.43 -0.08 Q 228.53 -0.15 227.58 -0.63 Q 226.63 -1.1 226.01 -2.3 Q 225.38 -3.5 225.38 -5.75 L 225.38 -5.75 L 225.38 -31 Q 225.38 -31.6 225.81 -32.05 Q 226.23 -32.5 226.88 -32.5 Z M 243.63 -35.5 L 243.63 -1.5 Q 243.63 -0.9 243.18 -0.45 Q 242.73 0 242.13 0 L 242.13 0 Q 241.48 0 241.05 -0.45 Q 240.63 -0.9 240.63 -1.5 L 240.63 -1.5 L 240.63 -35.5 Q 240.63 -36.1 241.08 -36.55 Q 241.53 -37 242.13 -37 L 242.13 -37 Q 242.78 -37 243.2 -36.55 Q 243.63 -36.1 243.63 -35.5 L 243.63 -35.5 Z M 270.13 -26 L 270.13 -26 Q 270.78 -26 271.2 -25.55 Q 271.63 -25.1 271.63 -24.5 L 271.63 -24.5 L 271.63 -2.45 Q 271.63 1.6 270.03 4.38 Q 268.43 7.15 265.73 8.58 Q 263.03 10 259.58 10 L 259.58 10 Q 257.43 10 255.6 9.53 Q 253.78 9.05 252.63 8.3 L 252.63 8.3 Q 252.03 7.95 251.73 7.45 Q 251.43 6.95 251.68 6.4 L 251.68 6.4 Q 251.93 5.7 252.45 5.48 Q 252.98 5.25 253.53 5.5 L 253.53 5.5 Q 254.38 5.95 255.98 6.6 Q 257.58 7.25 259.63 7.25 L 259.63 7.25 Q 262.38 7.25 264.4 6.1 Q 266.43 4.95 267.53 2.78 Q 268.63 0.6 268.63 -2.4 L 268.63 -2.4 L 268.63 -6 L 268.98 -4.8 Q 268.23 -3.25 266.85 -2.05 Q 265.48 -0.85 263.7 -0.18 Q 261.93 0.5 259.93 0.5 L 259.93 0.5 Q 256.93 0.5 254.95 -0.73 Q 252.98 -1.95 252.03 -4.1 Q 251.08 -6.25 251.08 -9.15 L 251.08 -9.15 L 251.08 -24.5 Q 251.08 -25.1 251.48 -25.55 Q 251.88 -26 252.58 -26 L 252.58 -26 Q 253.23 -26 253.65 -25.55 Q 254.08 -25.1 254.08 -24.5 L 254.08 -24.5 L 254.08 -9.6 Q 254.08 -6.1 255.6 -4.2 Q 257.13 -2.3 260.58 -2.3 L 260.58 -2.3 Q 262.73 -2.3 264.53 -3.33 Q 266.33 -4.35 267.48 -6.03 Q 268.63 -7.7 268.63 -9.6 L 268.63 -9.6 L 268.63 -24.5 Q 268.63 -25.1 269.05 -25.55 Q 269.48 -26 270.13 -26 Z" stroke-linecap="round" />
</g>
		<g transform="matrix(-1.23 0 0 -1.23 0 142.48)"  >
<path style="stroke: none; stroke-width: 1; stroke-dasharray: none; stroke-linecap: butt; stroke-dashoffset: 0; stroke-linejoin: miter; stroke-miterlimit: 4; fill: rgb(30,187,215); fill-rule: nonzero; opacity: 1;" vector-effect="non-scaling-stroke"  transform=" translate(-127.92, -87.39)" d="M 127.923 153.063 C 146.483 153.063 161.536 138.01 161.536 119.44999999999999 L 161.536 55.32199999999999 C 161.536 36.761999999999986 146.483 21.70899999999999 127.923 21.70899999999999 C 109.363 21.70899999999999 94.31 36.761999999999986 94.31 55.32199999999999 L 94.31 119.42499999999998 C 94.31 138.01 109.363 153.03799999999998 127.923 153.063 z M 104.55 55.322 C 104.55 48.845 107.161 43.034000000000006 111.38499999999999 38.81 C 115.63399999999999 34.561 121.446 31.975 127.922 31.975 C 134.398 31.975 140.21 34.586 144.459 38.81 C 148.709 43.059000000000005 151.294 48.871 151.294 55.322 L 151.294 119.425 C 151.294 125.902 148.68300000000002 131.713 144.459 135.962 C 140.209 140.212 134.398 142.797 127.922 142.797 C 121.446 142.797 115.634 140.186 111.38499999999999 135.962 C 107.136 131.712 104.55 125.90099999999998 104.55 119.42499999999998 L 104.55 55.32199999999999 z" stroke-linecap="round" />
</g>
		<g transform="matrix(-1.23 0 0 -1.23 0 72.43)"  >
<path style="stroke: none; stroke-width: 1; stroke-dasharray: none; stroke-linecap: butt; stroke-dashoffset: 0; stroke-linejoin: miter; stroke-miterlimit: 4; fill: rgb(30,187,215); fill-rule: nonzero; opacity: 1;" vector-effect="non-scaling-stroke"  transform=" translate(-127.92, -144.55)" d="M 74.368 134.375 C 74.701 138.65 76.05699999999999 143.207 78.43799999999999 147.738 C 81.99599999999998 154.522 87.85899999999998 161.22899999999998 96.20399999999998 166.273 C 103.32099999999998 170.57399999999998 112.20399999999998 173.569 122.82799999999997 174.362 L 122.82799999999997 198.017 L 76.49199999999998 198.017 L 76.49199999999998 208.257 L 179.32699999999997 208.257 L 179.32699999999997 198.017 L 133.04199999999997 198.017 L 133.04199999999997 174.465 C 140.23599999999996 174.132 149.75899999999996 172.929 158.74499999999998 168.5 C 164.27499999999998 165.761 169.57399999999998 161.742 173.64399999999998 155.982 C 177.71399999999997 150.222 180.47899999999998 142.798 181.24699999999999 133.633 C 181.605 129.46 181.784 123.44400000000002 181.91299999999998 116.84 C 182.04099999999997 110.26100000000001 182.06699999999998 103.144 182.06699999999998 96.97500000000001 C 182.06699999999998 87.861 181.98999999999998 80.84700000000001 181.98999999999998 80.84700000000001 L 171.74999999999997 80.95 C 171.74999999999997 80.95 171.77499999999998 82.691 171.77499999999998 85.558 C 171.79999999999998 88.42500000000001 171.82599999999996 92.444 171.82599999999996 96.976 C 171.82599999999996 103.094 171.80099999999996 110.16 171.67199999999997 116.662 C 171.54399999999998 123.13900000000001 171.33899999999997 129.078 171.03199999999998 132.76500000000001 C 170.392 140.394 168.21599999999998 145.872 165.272 150.04500000000002 C 163.045 153.19400000000002 160.357 155.60000000000002 157.31 157.54600000000002 C 152.75300000000001 160.43900000000002 147.429 162.17900000000003 142.28300000000002 163.15300000000002 C 137.11200000000002 164.12600000000003 132.17100000000002 164.33100000000002 128.43300000000002 164.33100000000002 C 113.17600000000002 164.306 102.55100000000002 159.365 95.46000000000002 153.067 C 91.92700000000002 149.918 89.26500000000001 146.386 87.47300000000003 142.955 C 85.68100000000004 139.52400000000003 84.73400000000002 136.197 84.55500000000002 133.56 C 84.32400000000003 130.693 84.17100000000002 125.522 84.09400000000002 119.608 C 84.01700000000002 113.694 83.99100000000003 107.013 83.99100000000003 100.869 C 83.99100000000003 95.493 84.01600000000003 90.526 84.04200000000003 86.917 C 84.06800000000003 83.308 84.09300000000003 81.08 84.09300000000003 81.08 L 73.85300000000004 80.977 C 73.85300000000004 80.977 73.77600000000004 90.04 73.77600000000004 100.868 C 73.77600000000004 107.012 73.80100000000004 113.74499999999999 73.90400000000004 119.735 C 73.95500000000004 125.80199999999999 74.10900000000004 131.024 74.36500000000004 134.378 z" stroke-linecap="round" />
</g>
		<g transform="matrix(-1.98 0 0 -1.98 215.84 179.14)"  >
<path style="stroke: none; stroke-width: 1; stroke-dasharray: none; stroke-linecap: butt; stroke-dashoffset: 0; stroke-linejoin: miter; stroke-miterlimit: 4; fill: rgb(30,187,215); fill-rule: nonzero; opacity: 1;" vector-effect="non-scaling-stroke"  transform=" translate(-13.43, -86.69)" d="M 23.194 89.553 L 23.194 89.553 C 22.759999999999998 90.931 22.149 92.054 21.362 92.92099999999999 C 20.576999999999998 93.782 19.581999999999997 94.52399999999999 18.375 95.14699999999999 L 18.375 95.14699999999999 C 18.267 95.21699999999998 18.149 95.26599999999999 18.02 95.294 C 17.893 95.315 17.756999999999998 95.30199999999999 17.61 95.253 L 17.61 95.253 C 17.394 95.182 17.224999999999998 95.031 17.105 94.801 C 16.977 94.569 16.949 94.34400000000001 17.021 94.128 L 17.021 94.128 C 17.092000000000002 93.912 17.25 93.746 17.492 93.629 L 17.492 93.629 C 18.481 93.174 19.324 92.56400000000001 20.02 91.801 C 20.71 91.036 21.226 90.135 21.567999999999998 89.10000000000001 L 21.567999999999998 89.10000000000001 C 21.854 88.236 21.974999999999998 87.42 21.932999999999996 86.65200000000002 C 21.884999999999998 85.88200000000002 21.671999999999997 85.21300000000002 21.296999999999997 84.64500000000001 C 20.924999999999997 84.08500000000001 20.403 83.69400000000002 19.728999999999996 83.47200000000001 L 19.728999999999996 83.47200000000001 C 18.896999999999995 83.197 18.148999999999994 83.2 17.485999999999997 83.48 C 16.821999999999996 83.76100000000001 16.198999999999998 84.217 15.616999999999997 84.85000000000001 C 15.040999999999997 85.48400000000001 14.466999999999997 86.20700000000001 13.895999999999997 87.01800000000001 L 13.895999999999997 87.01800000000001 C 13.433999999999997 87.69000000000001 12.953999999999997 88.31300000000002 12.453999999999997 88.88800000000002 C 11.947999999999997 89.46000000000002 11.403999999999996 89.94300000000003 10.822999999999997 90.33600000000001 C 10.241999999999997 90.72900000000001 9.605999999999996 90.96900000000001 8.913999999999996 91.058 C 8.219999999999995 91.153 7.450999999999996 91.061 6.606999999999996 90.781 L 6.606999999999996 90.781 C 5.647999999999996 90.46400000000001 4.880999999999996 89.92800000000001 4.304999999999996 89.17500000000001 C 3.729999999999996 88.421 3.382999999999996 87.51 3.2639999999999962 86.44200000000001 C 3.1469999999999962 85.36800000000001 3.2919999999999963 84.21400000000001 3.6989999999999963 82.98200000000001 L 3.6989999999999963 82.98200000000001 C 4.051999999999996 81.91500000000002 4.5719999999999965 80.94900000000001 5.259999999999996 80.08400000000002 C 5.947999999999996 79.21900000000002 6.738999999999996 78.61400000000002 7.634999999999996 78.26900000000002 L 7.634999999999996 78.26900000000002 C 8.016999999999996 78.09200000000001 8.325999999999997 78.04300000000002 8.561999999999996 78.12100000000002 L 8.561999999999996 78.12100000000002 C 8.739999999999997 78.18000000000002 8.889999999999995 78.33200000000002 9.012999999999996 78.57700000000003 C 9.131999999999996 78.81400000000002 9.155999999999997 79.04000000000002 9.084999999999996 79.25500000000002 L 9.084999999999996 79.25500000000002 C 9.023999999999996 79.43900000000002 8.908999999999995 79.57400000000003 8.739999999999995 79.65900000000002 L 8.739999999999995 79.65900000000002 C 8.263999999999996 79.84000000000002 7.799999999999995 80.11600000000001 7.345999999999995 80.48800000000001 C 6.891999999999995 80.85900000000001 6.487999999999995 81.30400000000002 6.133999999999995 81.82100000000001 C 5.779999999999995 82.33800000000001 5.501999999999995 82.90200000000002 5.299999999999995 83.51100000000001 L 5.299999999999995 83.51100000000001 C 5.018999999999996 84.36200000000001 4.898999999999996 85.17200000000001 4.940999999999995 85.93900000000001 C 4.976999999999995 86.70500000000001 5.174999999999995 87.36200000000001 5.535999999999995 87.912 C 5.896999999999995 88.46100000000001 6.420999999999995 88.849 7.106999999999995 89.07600000000001 L 7.106999999999995 89.07600000000001 C 7.862999999999995 89.32600000000001 8.556999999999995 89.316 9.188999999999995 89.045 C 9.820999999999994 88.775 10.412999999999995 88.336 10.965999999999994 87.73 C 11.516999999999994 87.13000000000001 12.059999999999993 86.47800000000001 12.594999999999994 85.774 L 12.594999999999994 85.774 C 13.066999999999993 85.07000000000001 13.561999999999994 84.406 14.077999999999994 83.781 C 14.592999999999995 83.162 15.150999999999994 82.64500000000001 15.752999999999995 82.23100000000001 C 16.348999999999993 81.81500000000001 17.015999999999995 81.55300000000001 17.756999999999994 81.44600000000001 C 18.490999999999993 81.33600000000001 19.336999999999996 81.44000000000001 20.295999999999996 81.75700000000002 L 20.295999999999996 81.75700000000002 C 21.216999999999995 82.06100000000002 21.961999999999996 82.60000000000002 22.530999999999995 83.37300000000002 C 23.099999999999994 84.14600000000002 23.449999999999996 85.05800000000002 23.581999999999994 86.10900000000002 C 23.717999999999993 87.16900000000003 23.588999999999995 88.31700000000002 23.193999999999992 89.55300000000003 z" stroke-linecap="round" />
</g>
		<g transform="matrix(-1.98 0 0 -1.98 185.3 226.92)"  >
<path style="stroke: none; stroke-width: 1; stroke-dasharray: none; stroke-linecap: butt; stroke-dashoffset: 0; stroke-linejoin: miter; stroke-miterlimit: 4; fill: rgb(30,187,215); fill-rule: nonzero; opacity: 1;" vector-effect="non-scaling-stroke"  transform=" translate(-28.82, -62.61)" d="M 23.643 55.712 L 23.643 55.712 C 24.359 54.629000000000005 25.256 53.847 26.336000000000002 53.366 C 27.416000000000004 52.885 28.586000000000002 52.704 29.847 52.823 C 31.098000000000003 52.944 32.329 53.405 33.54 54.205 L 33.54 54.205 C 34.746 55.001999999999995 35.655 55.955999999999996 36.268 57.067 C 36.877 58.183 37.176 59.339 37.164 60.534 C 37.148 61.735 36.794000000000004 62.86 36.1 63.909 L 36.1 63.909 C 35.731 64.467 35.297000000000004 64.942 34.798 65.333 C 34.302 65.719 33.776 66.02499999999999 33.218 66.25 C 32.660000000000004 66.475 32.081 66.617 31.480000000000004 66.677 C 30.879000000000005 66.73700000000001 30.287000000000003 66.71100000000001 29.704000000000004 66.59800000000001 L 29.704000000000004 66.59800000000001 L 29.676000000000005 65.96600000000001 L 37.086000000000006 70.86300000000001 C 37.276 70.98800000000001 37.39900000000001 71.16600000000001 37.455000000000005 71.39600000000002 C 37.502 71.62800000000001 37.458000000000006 71.84700000000001 37.321000000000005 72.05300000000001 L 37.321000000000005 72.05300000000001 C 37.185 72.25900000000001 37.002 72.38400000000001 36.775000000000006 72.42600000000002 C 36.541000000000004 72.46400000000001 36.330000000000005 72.42000000000002 36.139 72.29400000000001 L 36.139 72.29400000000001 L 20.601000000000003 62.02500000000001 C 20.395000000000003 61.88900000000001 20.261000000000003 61.70800000000001 20.201000000000004 61.484000000000016 C 20.141000000000005 61.26000000000002 20.183000000000003 61.039000000000016 20.326000000000004 60.82100000000002 L 20.326000000000004 60.82100000000002 C 20.462000000000003 60.615000000000016 20.649000000000004 60.48900000000002 20.887000000000004 60.44600000000002 C 21.121000000000006 60.40800000000002 21.341000000000005 60.45700000000002 21.547000000000004 60.59300000000002 L 21.547000000000004 60.59300000000002 L 24.117000000000004 62.292000000000016 L 23.704000000000004 62.500000000000014 C 23.316000000000003 62.01900000000001 23.030000000000005 61.493000000000016 22.846000000000004 60.92200000000001 C 22.658000000000005 60.35700000000001 22.564000000000004 59.77700000000001 22.563000000000002 59.18400000000001 C 22.561000000000003 58.58100000000001 22.649 57.98600000000001 22.829 57.399000000000015 C 23.014 56.81600000000002 23.286 56.253000000000014 23.643 55.71200000000002 z M 24.897 56.709 L 24.897 56.709 C 24.328999999999997 57.569 24.037999999999997 58.463 24.025 59.392 C 24.017999999999997 60.325 24.25 61.217000000000006 24.723 62.067 C 25.205 62.915 25.923 63.654 26.878 64.285 L 26.878 64.285 C 27.816 64.905 28.78 65.27799999999999 29.772 65.40299999999999 C 30.767 65.523 31.689999999999998 65.395 32.539 65.01899999999999 C 33.389 64.64299999999999 34.098 64.02499999999999 34.667 63.16599999999999 L 34.667 63.16599999999999 C 35.224000000000004 62.32299999999999 35.505 61.44299999999999 35.511 60.52399999999999 C 35.517 59.60599999999999 35.273 58.70699999999999 34.779 57.826999999999984 C 34.282000000000004 56.95299999999998 33.565000000000005 56.20599999999998 32.627 55.58699999999998 L 32.627 55.58699999999998 C 31.689000000000004 54.966999999999985 30.730000000000004 54.60599999999998 29.748 54.50099999999998 C 28.762 54.402999999999984 27.845000000000002 54.53499999999998 26.996000000000002 54.896999999999984 C 26.153000000000002 55.261999999999986 25.453000000000003 55.865999999999985 24.897000000000002 56.70899999999998 z" stroke-linecap="round" />
</g>
		<g transform="matrix(-1.98 0 0 -1.98 143.16 276.18)"  >
<path style="stroke: none; stroke-width: 1; stroke-dasharray: none; stroke-linecap: butt; stroke-dashoffset: 0; stroke-linejoin: miter; stroke-miterlimit: 4; fill: rgb(30,187,215); fill-rule: nonzero; opacity: 1;" vector-effect="non-scaling-stroke"  transform=" translate(-50.06, -37.79)" d="M 55.263 43.13 L 55.263 43.13 C 54.155 44.088 52.972 44.7 51.714999999999996 44.964000000000006 C 50.45399999999999 45.224000000000004 49.217 45.13400000000001 48.00599999999999 44.696000000000005 C 46.794999999999995 44.257000000000005 45.696999999999996 43.46900000000001 44.712999999999994 42.330000000000005 L 44.712999999999994 42.330000000000005 C 43.653999999999996 41.105000000000004 42.992999999999995 39.851000000000006 42.730999999999995 38.565000000000005 C 42.462999999999994 37.284000000000006 42.510999999999996 36.07600000000001 42.87199999999999 34.940000000000005 C 43.24399999999999 33.80500000000001 43.858999999999995 32.865 44.71999999999999 32.121 L 44.71999999999999 32.121 C 45.35799999999999 31.570000000000004 46.07099999999999 31.147000000000002 46.86099999999999 30.853 C 47.65099999999999 30.559 48.46599999999999 30.433 49.30699999999999 30.476000000000003 C 50.14799999999999 30.518000000000004 50.98699999999999 30.730000000000004 51.82199999999999 31.113000000000003 C 52.65699999999999 31.496000000000002 53.44399999999999 32.098000000000006 54.18099999999999 32.92 L 54.18099999999999 32.92 C 54.33399999999999 33.097 54.39699999999999 33.303000000000004 54.37099999999999 33.539 C 54.34999999999999 33.77 54.252999999999986 33.96 54.08099999999999 34.108000000000004 L 54.08099999999999 34.108000000000004 L 45.41299999999999 41.605000000000004 L 44.14399999999999 40.659000000000006 L 52.65999999999999 33.294000000000004 L 52.60199999999999 33.795 L 52.23499999999999 33.370000000000005 C 51.57299999999999 32.758 50.84899999999999 32.376000000000005 50.062999999999995 32.224000000000004 C 49.276999999999994 32.072 48.513999999999996 32.1 47.772999999999996 32.307 C 47.037 32.519000000000005 46.379999999999995 32.875 45.803 33.373000000000005 L 45.803 33.373000000000005 C 45.373 33.745000000000005 45.004999999999995 34.214000000000006 44.698 34.78 C 44.396 35.342 44.221000000000004 35.967 44.171 36.656 C 44.117 37.339999999999996 44.223 38.065999999999995 44.49 38.835 C 44.747 39.603 45.213 40.377 45.887 41.156 L 45.887 41.156 C 46.622 42.006 47.464 42.626999999999995 48.413 43.018 C 49.357 43.414 50.324999999999996 43.531 51.318 43.37 C 52.315999999999995 43.214999999999996 53.275 42.739 54.196 41.943 L 54.196 41.943 C 54.687 41.518 55.073 41.059999999999995 55.355999999999995 40.568 C 55.63399999999999 40.071 55.824 39.57 55.92699999999999 39.065999999999995 C 56.029999999999994 38.56099999999999 56.07099999999999 38.092 56.050999999999995 37.65899999999999 L 56.050999999999995 37.65899999999999 C 56.093999999999994 37.39199999999999 56.18899999999999 37.19499999999999 56.334999999999994 37.06799999999999 L 56.334999999999994 37.06799999999999 C 56.49199999999999 36.93199999999999 56.675999999999995 36.87499999999999 56.888999999999996 36.89399999999999 C 57.096 36.91799999999999 57.260999999999996 37.00199999999999 57.382999999999996 37.142999999999994 L 57.382999999999996 37.142999999999994 C 57.532 37.31499999999999 57.589999999999996 37.529999999999994 57.556 37.788999999999994 L 57.556 37.788999999999994 C 57.577 38.681999999999995 57.404999999999994 39.617999999999995 57.04 40.59799999999999 C 56.68 41.57299999999999 56.088 42.416999999999994 55.263 43.129999999999995 z" stroke-linecap="round" />
</g>
		<g transform="matrix(-1.98 0 0 -1.98 92.13 309.45)"  >
<path style="stroke: none; stroke-width: 1; stroke-dasharray: none; stroke-linecap: butt; stroke-dashoffset: 0; stroke-linejoin: miter; stroke-miterlimit: 4; fill: rgb(30,187,215); fill-rule: nonzero; opacity: 1;" vector-effect="non-scaling-stroke"  transform=" translate(-75.78, -21.02)" d="M 77.064 12.706 L 77.064 12.706 C 77.28699999999999 12.599 77.50899999999999 12.588999999999999 77.728 12.676 C 77.945 12.757 78.107 12.91 78.21499999999999 13.133000000000001 L 78.21499999999999 13.133000000000001 L 83.77799999999999 24.733 C 83.87599999999999 24.938 83.883 25.154 83.79899999999999 25.38 C 83.723 25.608999999999998 83.583 25.773 83.37799999999999 25.871 L 83.37799999999999 25.871 C 83.13699999999999 25.987 82.90899999999999 25.999 82.69499999999998 25.909 C 82.48399999999998 25.825 82.32899999999998 25.68 82.23099999999998 25.474999999999998 L 82.23099999999998 25.474999999999998 L 80.75999999999998 22.407999999999998 L 81.10399999999997 21.987 C 81.33499999999997 22.47 81.43399999999997 23.023 81.39899999999997 23.648 C 81.37399999999997 24.276 81.23199999999997 24.915 80.97299999999997 25.567 C 80.71999999999997 26.215 80.34299999999998 26.822 79.84299999999998 27.388 C 79.34299999999998 27.954 78.72199999999998 28.415000000000003 77.97999999999998 28.771 L 77.97999999999998 28.771 C 76.83399999999997 29.321 75.65599999999998 29.518 74.44699999999997 29.364 C 73.24099999999997 29.201 72.12399999999998 28.720000000000002 71.09599999999998 27.922 C 70.07099999999997 27.13 69.24399999999997 26.080000000000002 68.61599999999997 24.771 L 68.61599999999997 24.771 C 67.97399999999998 23.432000000000002 67.67299999999997 22.125 67.71499999999997 20.851 C 67.75999999999998 19.567999999999998 68.09899999999998 18.419 68.73199999999997 17.403 C 69.36199999999997 16.381 70.24099999999997 15.598999999999998 71.36999999999998 15.057999999999998 L 71.36999999999998 15.057999999999998 C 72.11199999999998 14.701999999999998 72.86599999999997 14.495999999999999 73.63299999999998 14.439999999999998 C 74.39699999999998 14.392999999999997 75.12699999999998 14.476999999999999 75.82399999999998 14.691999999999998 C 76.52099999999999 14.906999999999998 77.14399999999998 15.238999999999999 77.69299999999998 15.686999999999998 C 78.24499999999999 16.127 78.67099999999998 16.657999999999998 78.96799999999999 17.278999999999996 L 78.96799999999999 17.278999999999996 L 78.23899999999999 17.150999999999996 L 76.66699999999999 13.874999999999996 C 76.55999999999999 13.651999999999996 76.53999999999999 13.431999999999997 76.60699999999999 13.213999999999997 C 76.67099999999998 12.990999999999996 76.82299999999998 12.820999999999996 77.06399999999998 12.705999999999996 z M 77.444 27.259 L 77.444 27.259 C 78.355 26.822 79.05 26.199 79.531 25.39 C 80.00800000000001 24.575 80.24900000000001 23.654 80.254 22.628 C 80.259 21.602 80.01400000000001 20.573 79.519 19.542 L 79.519 19.542 C 79.033 18.529000000000003 78.39500000000001 17.718 77.60600000000001 17.109 C 76.81400000000001 16.495 75.95 16.115000000000002 75.013 15.971000000000002 C 74.07600000000001 15.827000000000002 73.152 15.973000000000003 72.241 16.41 L 72.241 16.41 C 71.348 16.838 70.657 17.455 70.168 18.261 C 69.679 19.067 69.426 19.971 69.41000000000001 20.973 C 69.394 21.974999999999998 69.63600000000001 22.997999999999998 70.13600000000001 24.041999999999998 L 70.13600000000001 24.041999999999998 C 70.63100000000001 25.072999999999997 71.27700000000002 25.909999999999997 72.07400000000001 26.551 C 72.86500000000001 27.194999999999997 73.73100000000001 27.584999999999997 74.67200000000001 27.720999999999997 C 75.60900000000001 27.849999999999998 76.534 27.695999999999998 77.44400000000002 27.258999999999997 z" stroke-linecap="round" />
</g>
		<g transform="matrix(-1.98 0 0 -1.98 36.56 330.48)"  >
<path style="stroke: none; stroke-width: 1; stroke-dasharray: none; stroke-linecap: butt; stroke-dashoffset: 0; stroke-linejoin: miter; stroke-miterlimit: 4; fill: rgb(30,187,215); fill-rule: nonzero; opacity: 1;" vector-effect="non-scaling-stroke"  transform=" translate(-103.79, -10.42)" d="M 100.797 20.815 L 100.797 20.815 C 100.554 20.860000000000003 100.337 20.811 100.148 20.669 C 99.96 20.533 99.84599999999999 20.354 99.80499999999999 20.13 L 99.80499999999999 20.13 L 96.309 1.0090000000000003 C 96.268 0.7850000000000004 96.312 0.5770000000000004 96.439 0.38300000000000034 C 96.56599999999999 0.18300000000000033 96.75099999999999 0.06100000000000033 96.994 0.016000000000000347 L 96.994 0.016000000000000347 C 97.237 -0.02899999999999965 97.457 0.020000000000000347 97.653 0.16100000000000034 C 97.84100000000001 0.2970000000000004 97.95500000000001 0.4760000000000003 97.997 0.7000000000000004 L 97.997 0.7000000000000004 L 101.493 19.820999999999998 C 101.53399999999999 20.044999999999998 101.49 20.252999999999997 101.362 20.447 C 101.229 20.648 101.03999999999999 20.771 100.797 20.814999999999998 z M 107.726 4.644 L 107.726 4.644 C 107.92999999999999 4.607 108.134 4.6610000000000005 108.337 4.808 C 108.534 4.9559999999999995 108.652 5.135 108.69 5.345 L 108.69 5.345 C 108.735 5.588 108.672 5.821 108.502 6.042999999999999 L 108.502 6.042999999999999 L 100.526 15.815 L 100.08 13.825999999999999 L 107.18599999999999 5.038999999999998 C 107.31599999999999 4.817999999999998 107.496 4.686999999999998 107.726 4.643999999999998 z M 110.58 19.027 L 110.58 19.027 C 110.337 19.072000000000003 110.114 19.007 109.91199999999999 18.832 L 109.91199999999999 18.832 L 102.26199999999999 13.202000000000002 L 103.314 11.816000000000003 L 110.89999999999999 17.428000000000004 C 111.106 17.588000000000005 111.231 17.789000000000005 111.27499999999999 18.032000000000004 L 111.27499999999999 18.032000000000004 C 111.32199999999999 18.289000000000005 111.25399999999999 18.512000000000004 111.071 18.702000000000005 C 110.895 18.891000000000005 110.731 18.999000000000006 110.58 19.027000000000005 z" stroke-linecap="round" />
</g>
		<g transform="matrix(-1.98 0 0 -1.98 -69.45 322.38)"  >
<path style="stroke: none; stroke-width: 1; stroke-dasharray: none; stroke-linecap: butt; stroke-dashoffset: 0; stroke-linejoin: miter; stroke-miterlimit: 4; fill: rgb(30,187,215); fill-rule: nonzero; opacity: 1;" vector-effect="non-scaling-stroke"  transform=" translate(-157.23, -14.5)" d="M 166.207 8.015 L 166.207 8.015 C 166.381 8.227 166.454 8.452 166.42499999999998 8.687000000000001 C 166.38799999999998 8.927000000000001 166.26399999999998 9.135000000000002 166.052 9.309000000000001 L 166.052 9.309000000000001 C 165.881 9.439000000000002 165.69 9.48 165.481 9.432 C 165.277 9.392000000000001 165.095 9.299 164.935 9.155000000000001 L 164.935 9.155000000000001 C 164.37800000000001 8.493 163.74 7.916000000000001 163.022 7.422000000000001 C 162.31 6.931000000000001 161.495 6.548000000000001 160.57899999999998 6.276000000000001 L 160.57899999999998 6.276000000000001 C 159.46299999999997 5.944000000000001 158.36999999999998 5.831 157.29699999999997 5.937 C 156.21699999999996 6.048 155.21099999999996 6.3660000000000005 154.27999999999997 6.891 C 153.34899999999996 7.416 152.53799999999998 8.124 151.84699999999998 9.015 C 151.158 9.899000000000001 150.634 10.943000000000001 150.27399999999997 12.148 L 150.27399999999997 12.148 C 149.90299999999996 13.392 149.76899999999998 14.58 149.87199999999999 15.713999999999999 C 149.968 16.845 150.26899999999998 17.884999999999998 150.77599999999998 18.831 C 151.27599999999998 19.776 151.944 20.582 152.778 21.25 C 153.614 21.911 154.581 22.405 155.677 22.731 L 155.677 22.731 C 156.575 22.998 157.458 23.125 158.327 23.112000000000002 C 159.192 23.090000000000003 160.04 22.963 160.871 22.729000000000003 L 160.871 22.729000000000003 C 161.083 22.673000000000002 161.29000000000002 22.693 161.49200000000002 22.788000000000004 C 161.69600000000003 22.877000000000002 161.83200000000002 23.029000000000003 161.9 23.245000000000005 L 161.9 23.245000000000005 C 162.006 23.500000000000004 162.00300000000001 23.733000000000004 161.89100000000002 23.944000000000006 C 161.77700000000002 24.161000000000005 161.60200000000003 24.305000000000007 161.365 24.373000000000005 L 161.365 24.373000000000005 C 160.817 24.524000000000004 160.198 24.636000000000006 159.506 24.709000000000003 C 158.808 24.780000000000005 158.089 24.790000000000003 157.351 24.738000000000003 C 156.606 24.684000000000005 155.888 24.553000000000004 155.195 24.347 L 155.195 24.347 C 153.881 23.955000000000002 152.72 23.352 151.714 22.535 C 150.701 21.717 149.878 20.742 149.245 19.611 C 148.60500000000002 18.478 148.215 17.234 148.074 15.88 C 147.93300000000002 14.526 148.083 13.108 148.524 11.627 L 148.524 11.627 C 148.948 10.204 149.584 8.969000000000001 150.433 7.923 C 151.277 6.869 152.269 6.037 153.40699999999998 5.427 C 154.54699999999997 4.81 155.77399999999997 4.428999999999999 157.088 4.2829999999999995 C 158.402 4.137 159.726 4.263 161.06 4.659999999999999 L 161.06 4.659999999999999 C 162.099 4.968999999999999 163.058 5.4159999999999995 163.938 5.998999999999999 C 164.82 6.575999999999999 165.576 7.247999999999999 166.207 8.014999999999999 z" stroke-linecap="round" />
</g>
		<g transform="matrix(-1.98 0 0 -1.98 -123.82 290.49)"  >
<path style="stroke: none; stroke-width: 1; stroke-dasharray: none; stroke-linecap: butt; stroke-dashoffset: 0; stroke-linejoin: miter; stroke-miterlimit: 4; fill: rgb(30,187,215); fill-rule: nonzero; opacity: 1;" vector-effect="non-scaling-stroke"  transform=" translate(-184.63, -30.57)" d="M 192.486 26.64 L 192.486 26.64 C 192.695 26.773 192.821 26.955000000000002 192.863 27.188000000000002 C 192.909 27.415000000000003 192.86599999999999 27.633000000000003 192.733 27.842000000000002 L 192.733 27.842000000000002 L 185.83700000000002 38.703 C 185.715 38.895 185.53600000000003 39.015 185.3 39.063 C 185.066 39.120000000000005 184.852 39.088 184.66000000000003 38.966 L 184.66000000000003 38.966 C 184.43400000000003 38.823 184.30300000000003 38.636 184.26600000000002 38.407000000000004 C 184.22600000000003 38.18300000000001 184.26700000000002 37.975 184.389 37.784000000000006 L 184.389 37.784000000000006 L 186.21200000000002 34.912000000000006 L 186.751 34.980000000000004 C 186.464 35.432 186.047 35.809000000000005 185.49800000000002 36.111000000000004 C 184.95200000000003 36.422000000000004 184.33400000000003 36.64000000000001 183.645 36.76500000000001 C 182.961 36.894000000000005 182.247 36.89600000000001 181.501 36.77100000000001 C 180.756 36.647000000000006 180.036 36.36400000000001 179.341 35.92300000000001 L 179.341 35.92300000000001 C 178.268 35.24200000000001 177.477 34.34700000000001 176.96800000000002 33.23900000000001 C 176.46800000000002 32.12900000000001 176.28400000000002 30.92700000000001 176.41700000000003 29.632000000000012 C 176.54600000000002 28.34300000000001 176.99900000000002 27.086000000000013 177.77700000000004 25.860000000000014 L 177.77700000000004 25.860000000000014 C 178.57300000000004 24.606000000000012 179.52300000000005 23.660000000000014 180.62600000000003 23.021000000000015 C 181.73800000000003 22.380000000000017 182.89300000000003 22.059000000000015 184.09000000000003 22.058000000000014 C 185.29100000000003 22.052000000000014 186.41900000000004 22.384000000000015 187.47500000000002 23.054000000000013 L 187.47500000000002 23.054000000000013 C 188.17000000000002 23.49500000000001 188.74400000000003 24.026000000000014 189.19800000000004 24.647000000000013 C 189.64300000000003 25.270000000000014 189.95800000000003 25.93400000000001 190.14400000000003 26.639000000000014 C 190.33000000000004 27.344000000000012 190.37900000000005 28.048000000000012 190.28900000000004 28.752000000000013 C 190.20800000000006 29.454000000000015 189.98300000000003 30.095000000000013 189.61400000000003 30.676000000000013 L 189.61400000000003 30.676000000000013 L 189.33700000000005 29.98900000000001 L 191.28400000000005 26.923000000000012 C 191.41700000000006 26.714000000000013 191.59300000000005 26.580000000000013 191.81200000000004 26.52100000000001 C 192.03500000000005 26.45700000000001 192.26000000000005 26.496000000000013 192.48600000000005 26.64000000000001 z M 180.341 34.667 L 180.341 34.667 C 181.19400000000002 35.208 182.091 35.469 183.031 35.448 C 183.975 35.421 184.88400000000001 35.138 185.757 34.599000000000004 C 186.63 34.06 187.37300000000002 33.307 187.98600000000002 32.341 L 187.98600000000002 32.341 C 188.58800000000002 31.392 188.93900000000002 30.422 189.038 29.431 C 189.14000000000001 28.434 189.00400000000002 27.5 188.63000000000002 26.628 C 188.25600000000003 25.757 187.64300000000003 25.05 186.79000000000002 24.509 L 186.79000000000002 24.509 C 185.954 23.978 185.06500000000003 23.719 184.122 23.731 C 183.179 23.743000000000002 182.27900000000002 24.007 181.42000000000002 24.523000000000003 C 180.561 25.040000000000003 179.82100000000003 25.786 179.20100000000002 26.764000000000003 L 179.20100000000002 26.764000000000003 C 178.58800000000002 27.730000000000004 178.22000000000003 28.721000000000004 178.098 29.737000000000002 C 177.97000000000003 30.749000000000002 178.098 31.69 178.48100000000002 32.559000000000005 C 178.86800000000002 33.423 179.48800000000003 34.12500000000001 180.34100000000004 34.667 z" stroke-linecap="round" />
</g>
		<g transform="matrix(-1.98 0 0 -1.98 -166.36 258.94)"  >
<path style="stroke: none; stroke-width: 1; stroke-dasharray: none; stroke-linecap: butt; stroke-dashoffset: 0; stroke-linejoin: miter; stroke-miterlimit: 4; fill: rgb(30,187,215); fill-rule: nonzero; opacity: 1;" vector-effect="non-scaling-stroke"  transform=" translate(-206.07, -46.48)" d="M 207.539 39.729 L 207.539 39.729 L 212.093 44.58 C 212.253 44.751 212.325 44.945 212.309 45.161 C 212.297 45.383 212.208 45.572 212.043 45.728 L 212.043 45.728 C 211.887 45.875 211.703 45.942 211.489 45.931000000000004 C 211.276 45.929 211.089 45.843 210.93 45.672000000000004 L 210.93 45.672000000000004 L 206.376 40.821000000000005 C 206.22 40.65500000000001 206.14600000000002 40.459 206.153 40.232000000000006 C 206.15599999999998 40.00000000000001 206.23499999999999 39.81100000000001 206.391 39.66400000000001 L 206.391 39.66400000000001 C 206.557 39.50800000000001 206.753 39.43900000000001 206.98 39.455000000000005 C 207.197 39.471000000000004 207.384 39.562000000000005 207.539 39.729000000000006 z M 212.493 39.111 L 212.493 39.111 C 212.662 39.291 212.739 39.5 212.722 39.736 C 212.715 39.971999999999994 212.625 40.171 212.454 40.330999999999996 L 212.454 40.330999999999996 L 201.999 50.145999999999994 C 201.609 50.51199999999999 201.364 50.837999999999994 201.265 51.123999999999995 C 201.171 51.404999999999994 201.172 51.660999999999994 201.26999999999998 51.891 C 201.362 52.116 201.486 52.312 201.641 52.477 L 201.641 52.477 C 201.74599999999998 52.589 201.857 52.672999999999995 201.974 52.729 C 202.095 52.79 202.206 52.874 202.307 52.981 L 202.307 52.981 C 202.426 53.108000000000004 202.48 53.263 202.47 53.448 C 202.455 53.627 202.37199999999999 53.788000000000004 202.22 53.93 L 202.22 53.93 C 202.025 54.113 201.758 54.157 201.421 54.061 C 201.07899999999998 53.96 200.763 53.756 200.475 53.449 L 200.475 53.449 C 200.361 53.327 200.194 53.129999999999995 199.975 52.858 C 199.766 52.586 199.60399999999998 52.257 199.488 51.87 C 199.37199999999999 51.483 199.398 51.046 199.565 50.559 C 199.736 50.077 200.134 49.543 200.759 48.957 L 200.759 48.957 L 211.27999999999997 39.08 C 211.45099999999996 38.92 211.652 38.841 211.884 38.844 C 212.12099999999998 38.842 212.32399999999998 38.931000000000004 212.493 39.111000000000004 z" stroke-linecap="round" />
</g>
		<g transform="matrix(-1.98 0 0 -1.98 -195.44 226.52)"  >
<path style="stroke: none; stroke-width: 1; stroke-dasharray: none; stroke-linecap: butt; stroke-dashoffset: 0; stroke-linejoin: miter; stroke-miterlimit: 4; fill: rgb(30,187,215); fill-rule: nonzero; opacity: 1;" vector-effect="non-scaling-stroke"  transform=" translate(-220.73, -62.81)" d="M 229.353 58.251 L 213.037 68.816 C 212.846 68.94 212.633 68.974 212.398 68.919 C 212.161 68.87299999999999 211.97899999999998 68.752 211.852 68.55499999999999 L 211.852 68.55499999999999 C 211.717 68.347 211.68 68.12899999999999 211.738 67.89999999999999 C 211.791 67.67399999999999 211.913 67.49999999999999 212.104 67.37599999999999 L 212.104 67.37599999999999 L 228.42100000000002 56.81099999999999 C 228.61200000000002 56.68699999999999 228.82500000000002 56.65299999999999 229.05900000000003 56.70799999999999 C 229.29600000000002 56.75399999999999 229.47600000000003 56.87199999999999 229.60000000000002 57.06299999999999 L 229.60000000000002 57.06299999999999 C 229.735 57.27099999999999 229.77400000000003 57.49199999999999 229.71900000000002 57.72699999999999 C 229.66600000000003 57.95299999999999 229.544 58.12699999999999 229.353 58.25099999999999 z" stroke-linecap="round" />
</g>
		<g transform="matrix(-1.98 0 0 -1.98 -206.52 178.37)"  >
<path style="stroke: none; stroke-width: 1; stroke-dasharray: none; stroke-linecap: butt; stroke-dashoffset: 0; stroke-linejoin: miter; stroke-miterlimit: 4; fill: rgb(30,187,215); fill-rule: nonzero; opacity: 1;" vector-effect="non-scaling-stroke"  transform=" translate(-226.31, -87.08)" d="M 237.264 89.051 L 237.264 89.051 C 237.35000000000002 89.283 237.339 89.505 237.23100000000002 89.71600000000001 C 237.12300000000002 89.927 236.96300000000002 90.072 236.74900000000002 90.15 L 236.74900000000002 90.15 L 224.93300000000002 94.509 C 223.48300000000003 95.044 222.157 95.209 220.955 95.003 C 219.75300000000001 94.798 218.71900000000002 94.305 217.854 93.526 C 216.989 92.747 216.33 91.74199999999999 215.876 90.51299999999999 L 215.876 90.51299999999999 C 215.594 89.74699999999999 215.417 89.00699999999999 215.345 88.291 C 215.274 87.576 215.293 86.962 215.404 86.451 L 215.404 86.451 C 215.451 86.19099999999999 215.546 85.975 215.688 85.8 C 215.82399999999998 85.628 216.009 85.55 216.243 85.564 L 216.243 85.564 C 216.51999999999998 85.562 216.734 85.639 216.885 85.79799999999999 C 217.036 85.95599999999999 217.10399999999998 86.14899999999999 217.088 86.37499999999999 L 217.088 86.37499999999999 C 217.03799999999998 86.74299999999998 217.003 87.25499999999998 216.981 87.91199999999999 C 216.959 88.56899999999999 217.084 89.264 217.355 89.999 L 217.355 89.999 C 217.71599999999998 90.978 218.238 91.755 218.921 92.33099999999999 C 219.595 92.90199999999999 220.394 93.24199999999999 221.319 93.35 C 222.24099999999999 93.452 223.238 93.30499999999999 224.31099999999998 92.90899999999999 L 224.31099999999998 92.90899999999999 L 226.24099999999999 92.19699999999999 L 225.66099999999997 92.62499999999999 C 225.01099999999997 92.56499999999998 224.38199999999998 92.36599999999999 223.77199999999996 92.02799999999999 C 223.15799999999996 91.698 222.61499999999995 91.25999999999999 222.14299999999997 90.714 C 221.67099999999996 90.16799999999999 221.30199999999996 89.53699999999999 221.03899999999996 88.822 L 221.03899999999996 88.822 C 220.64299999999997 87.74900000000001 220.53199999999995 86.781 220.70499999999996 85.918 C 220.88299999999995 85.04700000000001 221.29199999999994 84.30000000000001 221.93299999999996 83.679 C 222.57999999999996 83.055 223.42099999999996 82.552 224.45699999999997 82.17 L 224.45699999999997 82.17 L 232.68599999999998 79.135 C 232.89899999999997 79.05600000000001 233.11399999999998 79.05900000000001 233.331 79.143 C 233.547 79.227 233.701 79.392 233.791 79.636 L 233.791 79.636 C 233.877 79.868 233.867 80.09299999999999 233.761 80.31 C 233.653 80.521 233.493 80.666 233.28 80.745 L 233.28 80.745 L 225.296 83.69 C 224.041 84.15299999999999 223.17499999999998 84.783 222.69799999999998 85.579 C 222.21899999999997 86.369 222.20799999999997 87.38199999999999 222.664 88.618 L 222.664 88.618 C 222.946 89.384 223.38899999999998 90.023 223.992 90.535 C 224.59799999999998 91.039 225.27599999999998 91.38799999999999 226.02499999999998 91.582 C 226.77799999999996 91.768 227.49399999999997 91.73599999999999 228.17099999999996 91.485 L 228.17099999999996 91.485 L 236.15499999999997 88.54 C 236.36799999999997 88.46100000000001 236.58599999999998 88.47000000000001 236.80699999999996 88.56700000000001 C 237.02599999999995 88.65700000000001 237.17799999999997 88.819 237.26399999999995 89.051 z" stroke-linecap="round" />
</g>
		<g transform="matrix(-1.98 0 0 -1.98 205.53 32.11)"  >
<path style="stroke: none; stroke-width: 1; stroke-dasharray: none; stroke-linecap: butt; stroke-dashoffset: 0; stroke-linejoin: miter; stroke-miterlimit: 4; fill: rgb(30,187,215); fill-rule: nonzero; opacity: 1;" vector-effect="non-scaling-stroke"  transform=" translate(-18.62, -160.8)" d="M 8.347 164.207 L 8.347 164.207 C 7.842 162.76 7.648 161.421 7.765 160.19 C 7.8839999999999995 158.965 8.26 157.704 8.891 156.406 L 8.891 156.406 C 8.935 156.285 9.004 156.174 9.097 156.073 C 9.187999999999999 155.965 9.309 155.886 9.462 155.834 L 9.462 155.834 C 9.69 155.758 9.931 155.78 10.182 155.9 C 10.432 156.014 10.596 156.18800000000002 10.675 156.423 L 10.675 156.423 C 10.751000000000001 156.651 10.726 156.893 10.599 157.147 L 10.599 157.147 C 10.048 158.15699999999998 9.721 159.20399999999998 9.619 160.29 C 9.51 161.378 9.638 162.46699999999998 10.003 163.558 L 10.003 163.558 C 10.309 164.47199999999998 10.727 165.238 11.258 165.857 C 11.783 166.478 12.382 166.909 13.056 167.15 C 13.729 167.39100000000002 14.421 167.392 15.131 167.155 L 15.131 167.155 C 16.007 166.862 16.638 166.387 17.024 165.728 C 17.404 165.072 17.64 164.291 17.733 163.38500000000002 C 17.827 162.48600000000002 17.857 161.50900000000001 17.822 160.45600000000002 L 17.822 160.45600000000002 C 17.788999999999998 159.59900000000002 17.804 158.769 17.867 157.965 C 17.921 157.157 18.072 156.405 18.319000000000003 155.708 C 18.566000000000003 155.012 18.952 154.406 19.478 153.892 C 20.004 153.377 20.718 152.969 21.619 152.668 L 21.619 152.668 C 22.628 152.33100000000002 23.615 152.297 24.58 152.567 C 25.538999999999998 152.839 26.407999999999998 153.39100000000002 27.186999999999998 154.22400000000002 C 27.959999999999997 155.05900000000003 28.563999999999997 156.127 28.999 157.42700000000002 L 28.999 157.42700000000002 C 29.375 158.55 29.546 159.69500000000002 29.512999999999998 160.86400000000003 C 29.479999999999997 162.03200000000004 29.194999999999997 163.04400000000004 28.656 163.90100000000004 L 28.656 163.90100000000004 C 28.448999999999998 164.29500000000004 28.218999999999998 164.53400000000005 27.965 164.61900000000003 L 27.965 164.61900000000003 C 27.775 164.68300000000002 27.551 164.64800000000002 27.294999999999998 164.51500000000001 C 27.040999999999997 164.388 26.875999999999998 164.211 26.799999999999997 163.983 L 26.799999999999997 163.983 C 26.735999999999997 163.793 26.749 163.609 26.836999999999996 163.43 L 26.836999999999996 163.43 C 27.128999999999998 162.973 27.349999999999998 162.44400000000002 27.501999999999995 161.84300000000002 C 27.651999999999994 161.23600000000002 27.711999999999996 160.60500000000002 27.683999999999994 159.95200000000003 C 27.653999999999993 159.29200000000003 27.529999999999994 158.63800000000003 27.313999999999993 157.991 L 27.313999999999993 157.991 C 27.012999999999995 157.09 26.602999999999994 156.328 26.083999999999993 155.704 C 25.57399999999999 155.085 24.988999999999994 154.656 24.330999999999992 154.417 C 23.67899999999999 154.176 22.991999999999994 154.177 22.267999999999994 154.419 L 22.267999999999994 154.419 C 21.461999999999993 154.68800000000002 20.878999999999994 155.138 20.517999999999994 155.76600000000002 C 20.158999999999992 156.401 19.934999999999995 157.14600000000002 19.846999999999994 158.00100000000003 C 19.764999999999993 158.85400000000004 19.719999999999995 159.75100000000003 19.709999999999994 160.69200000000004 L 19.709999999999994 160.69200000000004 C 19.754999999999995 161.58700000000005 19.757999999999992 162.46100000000004 19.718999999999994 163.31400000000002 C 19.672999999999995 164.169 19.528999999999993 164.961 19.286999999999995 165.69100000000003 C 19.041999999999994 166.41500000000002 18.639999999999997 167.05700000000004 18.079999999999995 167.61800000000002 C 17.525999999999996 168.17700000000002 16.744999999999994 168.62500000000003 15.735999999999995 168.96300000000002 L 15.735999999999995 168.96300000000002 C 14.758999999999995 169.29000000000002 13.786999999999995 169.30400000000003 12.819999999999995 169.00700000000003 C 11.848999999999995 168.71800000000005 10.972999999999995 168.16800000000003 10.193999999999996 167.35600000000002 C 9.414999999999996 166.544 8.798999999999996 165.49500000000003 8.346999999999996 164.20700000000002 z" stroke-linecap="round" />
</g>
		<g transform="matrix(-1.98 0 0 -1.98 190.47 -21.39)"  >
<path style="stroke: none; stroke-width: 1; stroke-dasharray: none; stroke-linecap: butt; stroke-dashoffset: 0; stroke-linejoin: miter; stroke-miterlimit: 4; fill: rgb(30,187,215); fill-rule: nonzero; opacity: 1;" vector-effect="non-scaling-stroke"  transform=" translate(-26.22, -187.77)" d="M 36.479 184.742 L 36.479 184.742 C 37.239 185.88299999999998 37.629 187.07899999999998 37.649 188.327 C 37.673 189.581 37.369 190.797 36.737 191.97299999999998 C 36.102000000000004 193.14399999999998 35.147 194.153 33.872 195.003 L 33.872 195.003 C 32.602 195.849 31.3 196.34199999999998 29.964 196.48399999999998 C 28.63 196.617 27.381 196.432 26.218 195.92899999999997 C 25.057 195.41599999999997 24.109 194.60899999999998 23.374 193.50599999999997 L 23.374 193.50599999999997 C 22.985 192.92099999999996 22.703 192.30499999999998 22.529 191.65799999999996 C 22.349 191.01399999999995 22.265 190.37499999999997 22.277 189.73999999999995 C 22.288 189.10499999999996 22.387 188.48099999999997 22.572000000000003 187.86699999999996 C 22.762000000000004 187.25799999999995 23.032000000000004 186.69299999999996 23.383000000000003 186.16999999999996 L 23.383000000000003 186.16999999999996 L 24.009000000000004 186.40399999999997 L 16.192000000000004 191.61099999999996 C 15.992000000000004 191.74499999999995 15.770000000000003 191.79199999999997 15.526000000000003 191.75199999999995 C 15.279000000000003 191.70699999999997 15.084000000000003 191.57599999999996 14.939000000000004 191.35999999999996 L 14.939000000000004 191.35999999999996 C 14.794000000000004 191.14299999999994 14.749000000000004 190.91199999999995 14.803000000000004 190.66599999999997 C 14.861000000000004 190.42699999999996 14.990000000000004 190.23999999999998 15.190000000000005 190.10699999999997 L 15.190000000000005 190.10699999999997 L 31.577000000000005 179.19299999999998 C 31.794000000000004 179.04799999999997 32.025000000000006 178.99099999999999 32.27 179.01999999999998 C 32.509 179.05399999999997 32.707 179.18699999999998 32.863 179.42199999999997 L 32.863 179.42199999999997 C 33.008 179.63899999999998 33.053 179.86999999999998 32.999 180.11499999999998 C 32.936 180.35799999999998 32.796 180.552 32.579 180.69599999999997 L 32.579 180.69599999999997 L 29.864 182.50399999999996 L 29.831 182.01999999999995 C 30.466 181.83799999999997 31.096 181.77699999999996 31.721 181.83399999999995 C 32.352 181.88799999999995 32.959 182.03399999999993 33.544 182.27199999999993 C 34.123 182.51299999999995 34.663 182.84099999999992 35.163 183.25499999999994 C 35.662 183.67799999999994 36.101 184.17399999999995 36.479 184.74199999999993 z M 34.984 185.557 L 34.984 185.557 C 34.379000000000005 184.649 33.626000000000005 184.00199999999998 32.725 183.613 C 31.829 183.221 30.868000000000002 183.082 29.841 183.194 C 28.815 183.307 27.798000000000002 183.69899999999998 26.791 184.36999999999998 L 26.791 184.36999999999998 C 25.805 185.02599999999998 25.049 185.81599999999997 24.521 186.73799999999997 C 23.999000000000002 187.65599999999998 23.744 188.60599999999997 23.755000000000003 189.58799999999997 C 23.766000000000002 190.56999999999996 24.073000000000004 191.51399999999995 24.677000000000003 192.42099999999996 L 24.677000000000003 192.42099999999996 C 25.267000000000003 193.30599999999995 26.01 193.93999999999997 26.909000000000002 194.32299999999995 C 27.807000000000002 194.70599999999996 28.782000000000004 194.83599999999996 29.834000000000003 194.71399999999994 C 30.892000000000003 194.58799999999994 31.913000000000004 194.19699999999995 32.899 193.54099999999994 L 32.899 193.54099999999994 C 33.89 192.88099999999994 34.636 192.09399999999994 35.137 191.18199999999993 C 35.644 190.26599999999993 35.891 189.32099999999994 35.879 188.34899999999993 C 35.872 187.37299999999993 35.574 186.44199999999992 34.983999999999995 185.55699999999993 z" stroke-linecap="round" />
</g>
		<g transform="matrix(-1.98 0 0 -1.98 143.07 -67.92)"  >
<path style="stroke: none; stroke-width: 1; stroke-dasharray: none; stroke-linecap: butt; stroke-dashoffset: 0; stroke-linejoin: miter; stroke-miterlimit: 4; fill: rgb(30,187,215); fill-rule: nonzero; opacity: 1;" vector-effect="non-scaling-stroke"  transform=" translate(-50.11, -211.22)" d="M 45.406 217.559 L 45.406 217.559 C 44.228 216.549 43.405 215.407 42.937 214.133 C 42.467999999999996 212.85000000000002 42.367999999999995 211.543 42.635999999999996 210.214 C 42.903 208.875 43.553 207.603 44.584999999999994 206.399 L 44.584999999999994 206.399 C 45.699999999999996 205.099 46.907999999999994 204.209 48.209999999999994 203.73 C 49.50699999999999 203.256 50.776999999999994 203.11999999999998 52.020999999999994 203.32399999999998 C 53.26499999999999 203.527 54.346999999999994 204.023 55.266999999999996 204.81099999999998 L 55.266999999999996 204.81099999999998 C 55.937 205.38599999999997 56.488 206.06499999999997 56.918 206.84799999999998 C 57.348 207.63099999999997 57.609 208.463 57.7 209.343 C 57.787000000000006 210.22799999999998 57.693000000000005 211.13899999999998 57.418000000000006 212.076 C 57.153000000000006 213.012 56.64900000000001 213.928 55.907000000000004 214.825 L 55.907000000000004 214.825 C 55.746 215.01299999999998 55.542 215.112 55.29600000000001 215.12099999999998 C 55.041000000000004 215.13099999999997 54.821000000000005 215.058 54.63900000000001 214.90099999999998 L 54.63900000000001 214.90099999999998 L 45.45200000000001 207.02299999999997 L 46.24200000000001 205.54599999999996 L 55.27000000000001 213.28699999999998 L 54.73700000000001 213.30599999999998 L 55.12900000000001 212.849 C 55.66700000000001 212.06799999999998 55.95500000000001 211.253 55.99500000000001 210.40599999999998 C 56.03000000000001 209.56399999999996 55.87900000000001 208.77299999999997 55.54300000000001 208.03499999999997 C 55.20600000000001 207.29699999999997 54.73300000000001 206.66699999999997 54.12400000000002 206.14399999999998 L 54.12400000000002 206.14399999999998 C 53.66200000000001 205.748 53.11100000000002 205.43399999999997 52.472000000000016 205.20299999999997 C 51.838000000000015 204.97599999999997 51.158000000000015 204.89099999999996 50.43100000000002 204.94699999999997 C 49.70900000000002 204.99799999999996 48.96700000000002 205.22099999999998 48.20500000000002 205.61599999999999 C 47.44300000000002 206.011 46.70700000000002 206.623 45.99700000000002 207.451 L 45.99700000000002 207.451 C 45.22600000000002 208.35 44.70800000000002 209.32399999999998 44.44200000000002 210.374 C 44.18100000000002 211.41899999999998 44.212000000000025 212.451 44.53700000000002 213.47 C 44.85200000000002 214.49 45.50000000000002 215.42 46.48100000000002 216.26 L 46.48100000000002 216.26 C 46.999000000000024 216.70399999999998 47.53900000000002 217.03 48.10000000000002 217.239 C 48.66200000000002 217.457 49.21300000000002 217.58100000000002 49.751000000000026 217.61 C 50.29900000000003 217.639 50.797000000000025 217.608 51.24600000000002 217.51700000000002 L 51.24600000000002 217.51700000000002 C 51.53100000000002 217.52400000000003 51.75000000000002 217.592 51.90200000000002 217.723 L 51.90200000000002 217.723 C 52.07000000000002 217.86700000000002 52.160000000000025 218.05 52.172000000000025 218.27100000000002 C 52.17900000000002 218.489 52.117000000000026 218.674 51.98700000000002 218.82600000000002 L 51.98700000000002 218.82600000000002 C 51.83000000000003 219.00900000000001 51.617000000000026 219.103 51.34700000000002 219.11 L 51.34700000000002 219.11 C 50.41500000000002 219.27200000000002 49.41200000000002 219.239 48.33600000000002 219.014 C 47.25100000000002 218.78900000000002 46.27500000000002 218.304 45.40600000000002 217.559 z" stroke-linecap="round" />
</g>
		<g transform="matrix(-1.98 0 0 -1.98 91.12 -100.7)"  >
<path style="stroke: none; stroke-width: 1; stroke-dasharray: none; stroke-linecap: butt; stroke-dashoffset: 0; stroke-linejoin: miter; stroke-miterlimit: 4; fill: rgb(30,187,215); fill-rule: nonzero; opacity: 1;" vector-effect="non-scaling-stroke"  transform=" translate(-76.29, -227.74)" d="M 84.266 222.611 L 84.266 222.611 C 84.50800000000001 222.726 84.66600000000001 222.89999999999998 84.739 223.135 C 84.816 223.379 84.798 223.619 84.687 223.855 L 84.687 223.855 L 78.865 236.13199999999998 C 78.762 236.34999999999997 78.58999999999999 236.50099999999998 78.34899999999999 236.587 C 78.10799999999999 236.673 77.87599999999999 236.66299999999998 77.65299999999999 236.557 L 77.65299999999999 236.557 C 77.39899999999999 236.43699999999998 77.23799999999999 236.26 77.17099999999999 236.028 C 77.103 235.796 77.121 235.571 77.22399999999999 235.35399999999998 L 77.22399999999999 235.35399999999998 L 78.76299999999999 232.10699999999997 L 79.329 232.10899999999998 C 79.088 232.617 78.704 233.06799999999998 78.17599999999999 233.462 C 77.64299999999999 233.85299999999998 77.02199999999999 234.16199999999998 76.31499999999998 234.38899999999998 C 75.60999999999999 234.60999999999999 74.85999999999999 234.70199999999997 74.06299999999999 234.665 C 73.26299999999999 234.634 72.47399999999999 234.433 71.69399999999999 234.064 L 71.69399999999999 234.064 C 70.47299999999998 233.48499999999999 69.52599999999998 232.647 68.85399999999998 231.551 C 68.18499999999999 230.44899999999998 67.83399999999999 229.213 67.80199999999998 227.843 C 67.77299999999998 226.46699999999998 68.08599999999998 225.08999999999997 68.73899999999998 223.712 L 68.73899999999998 223.712 C 69.41299999999998 222.291 70.28999999999998 221.17499999999998 71.37199999999997 220.362 C 72.44699999999997 219.547 73.61199999999997 219.058 74.86499999999997 218.897 C 76.12699999999997 218.733 77.35999999999997 218.93599999999998 78.56299999999996 219.507 L 78.56299999999996 219.507 C 79.34299999999996 219.877 80.00999999999996 220.36 80.56399999999996 220.95600000000002 C 81.11499999999997 221.55800000000002 81.53299999999996 222.215 81.81699999999996 222.92700000000002 C 82.10099999999997 223.639 82.24399999999997 224.36900000000003 82.24399999999997 225.11700000000002 C 82.24499999999998 225.865 82.08999999999997 226.56600000000003 81.78099999999998 227.21900000000002 L 81.78099999999998 227.21900000000002 L 81.40299999999998 226.54000000000002 L 83.04599999999998 223.07600000000002 C 83.15799999999997 222.84000000000003 83.32599999999998 222.67200000000003 83.55099999999997 222.57200000000003 C 83.77299999999997 222.47800000000004 84.01199999999997 222.49100000000004 84.26599999999998 222.61100000000002 z M 72.579 232.618 L 72.579 232.618 C 73.53999999999999 233.07399999999998 74.511 233.227 75.493 233.078 C 76.47999999999999 232.93200000000002 77.395 232.518 78.237 231.836 C 79.085 231.157 79.767 230.27300000000002 80.282 229.185 L 80.282 229.185 C 80.792 228.109 81.035 227.043 81.00999999999999 225.987 C 80.99399999999999 224.928 80.731 223.96699999999998 80.22299999999998 223.10399999999998 C 79.71999999999998 222.24399999999997 78.98799999999999 221.58599999999998 78.02699999999999 221.13 L 78.02699999999999 221.13 C 77.07799999999999 220.68 76.10999999999999 220.521 75.12199999999999 220.652 C 74.13399999999999 220.783 73.22499999999998 221.178 72.39499999999998 221.83499999999998 C 71.56199999999998 222.48399999999998 70.88099999999999 223.36399999999998 70.35299999999998 224.47699999999998 L 70.35299999999998 224.47699999999998 C 69.83699999999997 225.56499999999997 69.57799999999997 226.64899999999997 69.57699999999998 227.72899999999998 C 69.57599999999998 228.809 69.83399999999999 229.77999999999997 70.35199999999999 230.64 C 70.86999999999999 231.5 71.612 232.159 72.579 232.618 z" stroke-linecap="round" />
</g>
		<g transform="matrix(-1.98 0 0 -1.98 34.44 -110.13)"  >
<path style="stroke: none; stroke-width: 1; stroke-dasharray: none; stroke-linecap: butt; stroke-dashoffset: 0; stroke-linejoin: miter; stroke-miterlimit: 4; fill: rgb(30,187,215); fill-rule: nonzero; opacity: 1;" vector-effect="non-scaling-stroke"  transform=" translate(-104.86, -232.5)" d="M 98.465 242.581 L 98.465 242.581 C 98.208 242.535 98.01 242.408 97.87 242.2 C 97.73700000000001 241.993 97.69200000000001 241.771 97.73400000000001 241.533 L 97.73400000000001 241.533 L 101.334 221.32 C 101.376 221.083 101.49600000000001 220.887 101.694 220.731 C 101.897 220.584 102.12700000000001 220.533 102.384 220.579 L 102.384 220.579 C 102.641 220.625 102.839 220.752 102.978 220.96 C 103.11 221.174 103.155 221.399 103.113 221.636 L 103.113 221.636 L 99.512 241.85 C 99.47 242.087 99.35 242.28 99.154 242.429 C 98.951 242.576 98.72099999999999 242.627 98.465 242.581 z M 111.289 229.127 L 111.289 229.127 C 111.506 229.166 111.687 229.29600000000002 111.83 229.519 C 111.974 229.74200000000002 112.026 229.96200000000002 111.988 230.179 L 111.988 230.179 C 111.942 230.436 111.793 230.644 111.541 230.803 L 111.541 230.803 L 100.039 237.52 L 100.325 235.4 L 110.613 229.312 C 110.826 229.14600000000002 111.051 229.084 111.289 229.127 z M 108.809 244.423 L 108.809 244.423 C 108.55199999999999 244.377 108.354 244.23 108.215 243.981 L 108.215 243.981 L 102.718 235.582 L 104.27000000000001 234.594 L 109.71100000000001 242.963 C 109.85400000000001 243.192 109.90200000000002 243.435 109.85600000000001 243.69299999999998 L 109.85600000000001 243.69299999999998 C 109.807 243.96999999999997 109.659 244.16799999999998 109.41400000000002 244.28599999999997 C 109.16800000000002 244.40499999999997 108.96700000000001 244.45099999999996 108.80900000000001 244.42299999999997 z" stroke-linecap="round" />
</g>
		<g transform="matrix(-1.98 0 0 -1.98 -67.04 -102.4)"  >
<path style="stroke: none; stroke-width: 1; stroke-dasharray: none; stroke-linecap: butt; stroke-dashoffset: 0; stroke-linejoin: miter; stroke-miterlimit: 4; fill: rgb(30,187,215); fill-rule: nonzero; opacity: 1;" vector-effect="non-scaling-stroke"  transform=" translate(-156.01, -228.6)" d="M 160.311 218.19 L 160.311 218.19 C 160.594 218.273 160.792 218.43 160.90300000000002 218.662 C 161.01200000000003 218.888 161.026 219.142 160.943 219.425 L 160.943 219.425 C 160.854 219.64000000000001 160.70600000000002 219.78900000000002 160.501 219.872 C 160.29500000000002 219.955 160.082 219.977 159.86100000000002 219.93800000000002 L 159.86100000000002 219.93800000000002 C 158.984 219.67000000000002 158.086 219.52700000000002 157.16600000000003 219.51000000000002 C 156.24600000000004 219.49200000000002 155.30500000000004 219.62800000000001 154.34400000000002 219.91500000000002 L 154.34400000000002 219.91500000000002 C 153.16500000000002 220.26800000000003 152.13100000000003 220.805 151.24300000000002 221.52500000000003 C 150.35500000000002 222.24500000000003 149.65300000000002 223.10500000000005 149.13500000000002 224.10500000000005 C 148.61300000000003 225.11300000000006 148.306 226.21100000000004 148.21500000000003 227.39800000000005 C 148.11500000000004 228.58000000000004 148.25600000000003 229.80900000000005 148.63900000000004 231.08400000000006 L 148.63900000000004 231.08400000000006 C 149.03100000000003 232.39100000000005 149.59800000000004 233.51700000000005 150.34200000000004 234.46000000000006 C 151.08600000000004 235.40400000000005 151.95500000000004 236.14900000000006 152.95000000000005 236.69600000000005 C 153.94300000000004 237.23700000000005 155.00300000000004 237.55800000000005 156.13000000000005 237.66000000000005 C 157.25300000000004 237.77100000000004 158.39400000000006 237.65200000000004 159.55400000000006 237.30500000000006 L 159.55400000000006 237.30500000000006 C 160.49600000000007 237.02300000000005 161.34600000000006 236.61800000000005 162.10200000000006 236.09100000000007 C 162.86100000000005 235.57000000000008 163.53600000000006 234.97000000000006 164.12900000000005 234.28900000000007 L 164.12900000000005 234.28900000000007 C 164.28700000000003 234.11600000000007 164.48200000000006 234.01200000000009 164.71700000000004 233.97700000000006 C 164.94300000000004 233.93700000000007 165.15500000000003 233.99300000000005 165.35300000000004 234.14300000000006 L 165.35300000000004 234.14300000000006 C 165.58900000000003 234.30300000000005 165.71800000000005 234.51200000000006 165.74000000000004 234.77100000000004 C 165.76600000000005 235.02200000000005 165.69100000000003 235.25000000000006 165.51600000000005 235.45600000000005 L 165.51600000000005 235.45600000000005 C 165.12800000000004 235.90800000000004 164.64700000000005 236.36600000000004 164.07400000000004 236.83100000000005 C 163.50100000000003 237.29600000000005 162.87100000000004 237.72200000000004 162.18300000000005 238.10900000000004 C 161.50000000000006 238.48800000000003 160.79400000000004 238.78700000000003 160.06400000000005 239.00600000000003 L 160.06400000000005 239.00600000000003 C 158.67300000000006 239.42300000000003 157.29400000000004 239.56300000000002 155.92700000000005 239.42900000000003 C 154.56600000000006 239.29200000000003 153.27400000000006 238.90700000000004 152.05100000000004 238.27500000000003 C 150.83400000000003 237.64100000000005 149.76900000000003 236.76600000000005 148.85500000000005 235.65000000000003 C 147.94300000000004 234.54000000000002 147.25300000000004 233.20400000000004 146.78400000000005 231.64000000000004 L 146.78400000000005 231.64000000000004 C 146.33300000000006 230.13400000000004 146.18100000000004 228.67100000000005 146.32800000000006 227.25100000000003 C 146.46900000000005 225.83300000000003 146.86200000000005 224.52400000000003 147.50800000000007 223.32500000000005 C 148.15900000000008 222.11700000000005 149.02200000000008 221.07000000000005 150.09700000000007 220.18200000000004 C 151.17800000000005 219.29200000000006 152.42400000000006 218.63600000000005 153.83400000000006 218.21400000000006 L 153.83400000000006 218.21400000000006 C 154.93000000000006 217.88600000000005 156.03700000000006 217.72200000000007 157.15400000000005 217.72200000000007 C 158.26500000000004 217.72400000000007 159.31800000000004 217.88000000000005 160.31100000000006 218.19000000000005 z" stroke-linecap="round" />
</g>
		<g transform="matrix(-1.98 0 0 -1.98 -124.66 -80.67)"  >
<path style="stroke: none; stroke-width: 1; stroke-dasharray: none; stroke-linecap: butt; stroke-dashoffset: 0; stroke-linejoin: miter; stroke-miterlimit: 4; fill: rgb(30,187,215); fill-rule: nonzero; opacity: 1;" vector-effect="non-scaling-stroke"  transform=" translate(-185.05, -217.65)" d="M 185.086 208.821 L 185.086 208.821 C 185.312 208.677 185.543 208.636 185.782 208.698 C 186.02900000000002 208.762 186.223 208.904 186.363 209.125 L 186.363 209.125 L 193.673 220.579 C 193.803 220.782 193.84 221.008 193.784 221.258 C 193.72899999999998 221.507 193.59699999999998 221.699 193.38899999999998 221.83200000000002 L 193.38899999999998 221.83200000000002 C 193.152 221.98300000000003 192.91699999999997 222.026 192.68499999999997 221.95900000000003 C 192.45199999999997 221.89300000000003 192.271 221.75900000000004 192.14199999999997 221.55600000000004 L 192.14199999999997 221.55600000000004 L 190.20899999999997 218.52800000000005 L 190.51099999999997 218.04900000000004 C 190.81299999999996 218.52300000000002 190.99099999999996 219.08800000000002 191.04499999999996 219.74400000000003 C 191.09299999999996 220.40400000000002 191.02499999999995 221.09400000000002 190.84199999999996 221.81400000000002 C 190.65499999999994 222.52800000000002 190.33399999999995 223.21300000000002 189.87899999999996 223.86900000000003 C 189.42799999999997 224.53000000000003 188.83799999999997 225.09300000000002 188.11099999999996 225.55600000000004 L 188.11099999999996 225.55600000000004 C 186.97199999999995 226.28300000000004 185.75899999999996 226.64000000000004 184.47399999999996 226.62800000000004 C 183.18499999999997 226.61000000000004 181.95099999999996 226.25000000000006 180.77299999999997 225.54900000000004 C 179.59199999999996 224.84200000000004 178.59099999999998 223.84600000000003 177.77099999999996 222.56000000000003 L 177.77099999999996 222.56000000000003 C 176.92499999999995 221.23500000000004 176.44499999999996 219.89800000000002 176.33099999999996 218.55100000000004 C 176.21099999999996 217.20700000000005 176.41599999999997 215.96100000000004 176.94599999999997 214.81300000000005 C 177.47799999999998 213.65600000000003 178.30499999999998 212.72000000000006 179.42699999999996 212.00400000000005 L 179.42699999999996 212.00400000000005 C 180.15499999999997 211.54000000000005 180.91799999999998 211.23100000000005 181.71699999999996 211.07800000000006 C 182.51999999999995 210.93100000000007 183.29799999999994 210.92600000000007 184.05299999999997 211.06400000000005 C 184.80699999999996 211.20200000000006 185.50199999999998 211.46900000000005 186.13599999999997 211.86500000000004 C 186.76999999999995 212.26200000000003 187.28199999999995 212.76500000000004 187.66999999999996 213.37400000000002 L 187.66999999999996 213.37400000000002 L 186.89399999999995 213.33300000000003 L 184.83199999999994 210.10200000000003 C 184.69199999999995 209.88200000000003 184.63899999999992 209.65000000000003 184.67399999999995 209.40600000000003 C 184.71199999999996 209.16700000000003 184.84999999999994 208.97200000000004 185.08599999999996 208.82100000000003 z M 187.357 224.038 L 187.357 224.038 C 188.254 223.466 188.9 222.72400000000002 189.294 221.81400000000002 C 189.69500000000002 220.90000000000003 189.83 219.90500000000003 189.699 218.829 C 189.574 217.75 189.18800000000002 216.703 188.54000000000002 215.68800000000002 L 188.54000000000002 215.68800000000002 C 187.89900000000003 214.68400000000003 187.12500000000003 213.912 186.217 213.37300000000002 C 185.311 212.824 184.357 212.53600000000003 183.35600000000002 212.508 C 182.36 212.477 181.41400000000002 212.74800000000002 180.51700000000002 213.32000000000002 L 180.51700000000002 213.32000000000002 C 179.63200000000003 213.88500000000002 178.98200000000003 214.621 178.56900000000002 215.52800000000002 C 178.156 216.43500000000003 178.007 217.41400000000002 178.12300000000002 218.467 C 178.23000000000002 219.518 178.615 220.562 179.27700000000002 221.59900000000002 L 179.27700000000002 221.59900000000002 C 179.925 222.614 180.70600000000002 223.40900000000002 181.62 223.985 C 182.535 224.56 183.494 224.85700000000003 184.498 224.87400000000002 C 185.50199999999998 224.89200000000002 186.45499999999998 224.61300000000003 187.357 224.038 z" stroke-linecap="round" />
</g>
		<g transform="matrix(-1.98 0 0 -1.98 -162.3 -45.07)"  >
<path style="stroke: none; stroke-width: 1; stroke-dasharray: none; stroke-linecap: butt; stroke-dashoffset: 0; stroke-linejoin: miter; stroke-miterlimit: 4; fill: rgb(30,187,215); fill-rule: nonzero; opacity: 1;" vector-effect="non-scaling-stroke"  transform=" translate(-204.03, -199.7)" d="M 196.853 198.55 L 196.853 198.55 L 201.666 193.405 C 201.831 193.229 202.031 193.142 202.268 193.144 C 202.505 193.14600000000002 202.711 193.229 202.886 193.393 L 202.886 193.393 C 203.047 193.544 203.132 193.733 203.14 193.96 C 203.148 194.187 203.069 194.388 202.904 194.56400000000002 L 202.904 194.56400000000002 L 198.091 199.70800000000003 C 197.92600000000002 199.88400000000001 197.72400000000002 199.973 197.483 199.97700000000003 C 197.242 199.99000000000004 197.041 199.92100000000002 196.879 199.77000000000004 L 196.879 199.77000000000004 C 196.703 199.60500000000005 196.614 199.40300000000005 196.611 199.16100000000003 C 196.608 198.92900000000003 196.689 198.72500000000002 196.85299999999998 198.55000000000004 z M 195.871 193.371 L 195.871 193.371 C 196.049 193.18 196.264 193.083 196.51500000000001 193.08 C 196.76600000000002 193.07600000000002 196.979 193.157 197.15400000000002 193.32100000000003 L 197.15400000000002 193.32100000000003 L 208.22700000000003 203.68000000000004 C 208.63700000000003 204.06400000000002 208.99500000000003 204.29800000000003 209.30100000000004 204.38300000000004 C 209.61100000000005 204.46300000000005 209.88300000000004 204.44600000000003 210.11600000000004 204.33500000000004 C 210.34900000000005 204.22300000000004 210.54800000000003 204.07900000000004 210.71200000000005 203.90300000000005 L 210.71200000000005 203.90300000000005 C 210.82200000000006 203.78600000000006 210.90300000000005 203.66000000000005 210.95500000000004 203.52600000000004 C 211.00300000000004 203.39700000000005 211.08100000000005 203.27300000000005 211.19200000000004 203.15600000000003 L 211.19200000000004 203.15600000000003 C 211.31500000000003 203.02400000000003 211.47700000000003 202.96000000000004 211.67500000000004 202.96200000000005 C 211.86900000000003 202.96000000000004 212.04700000000005 203.03500000000005 212.20800000000003 203.18600000000004 L 212.20800000000003 203.18600000000004 C 212.41300000000004 203.37800000000004 212.47200000000004 203.65800000000004 212.38500000000002 204.02500000000003 C 212.30700000000002 204.39200000000002 212.11800000000002 204.73700000000002 211.81600000000003 205.05900000000003 L 211.81600000000003 205.05900000000003 C 211.69300000000004 205.19100000000003 211.49500000000003 205.37700000000004 211.22400000000002 205.61800000000002 C 210.95800000000003 205.86400000000003 210.621 206.062 210.21400000000003 206.21300000000002 C 209.81700000000004 206.36300000000003 209.35800000000003 206.365 208.83700000000002 206.216 C 208.30700000000002 206.068 207.71200000000002 205.685 207.05200000000002 205.068 L 207.05200000000002 205.068 L 195.91400000000002 194.64800000000002 C 195.73800000000003 194.48300000000003 195.644 194.276 195.63000000000002 194.02500000000003 C 195.61200000000002 193.77900000000002 195.693 193.56100000000004 195.87100000000004 193.37100000000004 z" stroke-linecap="round" />
</g>
		<g transform="matrix(-1.98 0 0 -1.98 -184.43 -10.24)"  >
<path style="stroke: none; stroke-width: 1; stroke-dasharray: none; stroke-linecap: butt; stroke-dashoffset: 0; stroke-linejoin: miter; stroke-miterlimit: 4; fill: rgb(30,187,215); fill-rule: nonzero; opacity: 1;" vector-effect="non-scaling-stroke"  transform=" translate(-215.18, -182.15)" d="M 207.074 175.79 L 224.274 187.00199999999998 C 224.476 187.134 224.603 187.32399999999998 224.655 187.575 C 224.708 187.825 224.668 188.051 224.537 188.25199999999998 L 224.537 188.25199999999998 C 224.395 188.47099999999998 224.20000000000002 188.60299999999998 223.954 188.65099999999998 C 223.711 188.69199999999998 223.489 188.647 223.287 188.516 L 223.287 188.516 L 206.08700000000002 177.303 C 205.88500000000002 177.171 205.75500000000002 176.97899999999998 205.69700000000003 176.725 C 205.64400000000003 176.475 205.68400000000003 176.249 205.81500000000003 176.048 L 205.81500000000003 176.048 C 205.95700000000002 175.829 206.15200000000002 175.697 206.39900000000003 175.649 C 206.64700000000002 175.611 206.87200000000004 175.658 207.07400000000004 175.79 z" stroke-linecap="round" />
</g>
		<g transform="matrix(-1.98 0 0 -1.98 -214.44 28.58)"  >
<path style="stroke: none; stroke-width: 1; stroke-dasharray: none; stroke-linecap: butt; stroke-dashoffset: 0; stroke-linejoin: miter; stroke-miterlimit: 4; fill: rgb(30,187,215); fill-rule: nonzero; opacity: 1;" vector-effect="non-scaling-stroke"  transform=" translate(-230.31, -162.58)" d="M 222.862 154.124 L 222.862 154.124 C 222.954 153.88 223.11499999999998 153.708 223.345 153.608 C 223.573 153.51500000000001 223.803 153.512 224.034 153.59900000000002 L 224.034 153.59900000000002 L 236.503 158.275 C 238.02499999999998 158.846 239.19699999999997 159.62800000000001 240.017 160.622 C 240.838 161.616 241.326 162.72400000000002 241.482 163.947 C 241.64 165.16400000000002 241.475 166.424 240.986 167.726 L 240.986 167.726 C 240.683 168.534 240.31099999999998 169.249 239.87099999999998 169.87 C 239.43699999999998 170.493 238.99499999999998 170.967 238.545 171.291 L 238.545 171.291 C 238.32899999999998 171.46699999999998 238.106 171.576 237.87599999999998 171.619 C 237.646 171.661 237.44499999999996 171.597 237.27299999999997 171.425 L 237.27299999999997 171.425 C 237.04499999999996 171.232 236.92399999999998 171.02300000000002 236.90899999999996 170.79500000000002 C 236.90299999999996 170.56400000000002 236.98499999999996 170.36300000000003 237.15699999999995 170.192 L 237.15699999999995 170.192 C 237.44599999999994 169.936 237.82599999999996 169.55 238.29899999999995 169.03400000000002 C 238.76899999999995 168.52400000000003 239.14799999999994 167.88400000000001 239.43699999999995 167.11300000000003 L 239.43699999999995 167.11300000000003 C 239.82699999999994 166.07300000000004 239.94899999999996 165.09000000000003 239.80299999999997 164.16400000000002 C 239.65499999999997 163.24400000000003 239.24899999999997 162.42000000000002 238.58699999999996 161.693 C 237.92099999999996 160.972 237.02499999999995 160.4 235.89699999999996 159.977 L 235.89699999999996 159.977 L 233.85799999999998 159.21200000000002 L 234.60899999999998 159.26800000000003 C 235.08599999999998 159.76800000000003 235.45499999999998 160.36400000000003 235.71699999999998 161.05600000000004 C 235.97299999999998 161.74500000000003 236.10099999999997 162.47200000000004 236.1 163.23600000000005 C 236.108 163.99600000000004 235.97 164.75500000000005 235.686 165.51300000000003 L 235.686 165.51300000000003 C 235.263 166.64100000000002 234.68 167.49000000000004 233.937 168.06200000000004 C 233.20000000000002 168.63600000000005 232.358 168.94900000000004 231.40900000000002 169.00100000000003 C 230.467 169.05500000000004 229.448 168.87600000000003 228.35200000000003 168.46500000000003 L 228.35200000000003 168.46500000000003 L 219.67900000000003 165.21200000000005 C 219.44700000000003 165.12500000000006 219.27500000000003 164.97500000000005 219.16200000000003 164.76100000000005 C 219.04900000000004 164.54700000000005 219.04200000000003 164.30900000000005 219.14100000000005 164.04600000000005 L 219.14100000000005 164.04600000000005 C 219.23300000000006 163.80200000000005 219.39400000000003 163.63000000000005 219.62400000000005 163.53100000000006 C 219.85200000000006 163.43800000000007 220.08200000000005 163.43500000000006 220.31300000000005 163.52100000000007 L 220.31300000000005 163.52100000000007 L 228.73200000000006 166.67800000000008 C 230.05400000000006 167.1740000000001 231.18000000000006 167.26700000000008 232.11000000000007 166.9590000000001 C 233.04600000000008 166.65300000000008 233.75800000000007 165.85100000000008 234.24400000000006 164.5550000000001 L 234.24400000000006 164.5550000000001 C 234.54900000000006 163.7410000000001 234.63500000000005 162.92200000000008 234.50100000000006 162.10000000000008 C 234.36600000000007 161.27800000000008 234.06500000000005 160.52900000000008 233.59600000000006 159.85300000000007 C 233.13200000000006 159.18600000000006 232.53900000000007 158.71700000000007 231.81900000000007 158.44700000000006 L 231.81900000000007 158.44700000000006 L 223.40000000000006 155.29000000000005 C 223.16800000000006 155.20300000000006 222.99700000000007 155.05000000000004 222.88700000000006 154.83000000000004 C 222.77900000000005 154.60400000000004 222.77100000000004 154.36800000000005 222.86200000000005 154.12400000000005 z" stroke-linecap="round" />
</g>
		<g transform="matrix(-1.98 0 0 -1.98 223.49 104.81)"  >
<path style="stroke: none; stroke-width: 1; stroke-dasharray: none; stroke-linecap: butt; stroke-dashoffset: 0; stroke-linejoin: miter; stroke-miterlimit: 4; fill: rgb(30,187,215); fill-rule: nonzero; opacity: 1;" vector-effect="non-scaling-stroke"  transform=" translate(-9.57, -124.16)" d="M 1.497 124.163 C 1.497 119.702 5.113 116.086 9.574 116.086 C 14.035 116.086 17.651 119.702 17.651 124.163 C 17.651 128.624 14.035 132.24 9.574 132.24 C 5.1129999999999995 132.24 1.4969999999999999 128.624 1.4969999999999999 124.16300000000001 z" stroke-linecap="round" />
</g>
		<g transform="matrix(-1.98 0 0 -1.98 -223.47 104.81)"  >
<path style="stroke: none; stroke-width: 1; stroke-dasharray: none; stroke-linecap: butt; stroke-dashoffset: 0; stroke-linejoin: miter; stroke-miterlimit: 4; fill: rgb(30,187,215); fill-rule: nonzero; opacity: 1;" vector-effect="non-scaling-stroke"  transform=" translate(-234.86, -124.16)" d="M 226.78 124.163 C 226.78 119.702 230.39600000000002 116.086 234.857 116.086 C 239.318 116.086 242.934 119.702 242.934 124.163 C 242.934 128.624 239.31799999999998 132.24 234.857 132.24 C 230.396 132.24 226.78 128.624 226.78 124.16300000000001 z" stroke-linecap="round" />
</g>
		<g transform="matrix(-2.84 0 0 -2.84 0.01 0)"  >
<rect style="stroke: none; stroke-width: 1; stroke-dasharray: none; stroke-linecap: butt; stroke-dashoffset: 0; stroke-linejoin: miter; stroke-miterlimit: 4; fill: none; fill-rule: nonzero; opacity: 1;" vector-effect="non-scaling-stroke"  x="-138.106" y="-123.6" rx="0" ry="0" width="276.212" height="247.2" />
</g>
</g>
</g>
</svg>